<svg width="120" height="120" viewBox="0 0 120 120" fill="none" xmlns="http://www.w3.org/2000/svg">
<g id="mdi:mother">
<path id="Vector" d="M37.5 10C40.1522 10 42.6957 11.0536 44.5711 12.9289C46.4464 14.8043 47.5 17.3478 47.5 20C47.5 22.6522 46.4464 25.1957 44.5711 27.0711C42.6957 28.9464 40.1522 30 37.5 30C34.8478 30 32.3043 28.9464 30.4289 27.0711C28.5536 25.1957 27.5 22.6522 27.5 20C27.5 17.3478 28.5536 14.8043 30.4289 12.9289C32.3043 11.0536 34.8478 10 37.5 10ZM30 110V80H15L28 42C29.5 38 33 35 37.5 35C42 35 46 38 47 42L60 80H45V110H30ZM72.5 60C72.5 57.3478 73.5536 54.8043 75.4289 52.9289C77.3043 51.0536 79.8478 50 82.5 50C85.1522 50 87.6957 51.0536 89.5711 52.9289C91.4464 54.8043 92.5 57.3478 92.5 60C92.5 62.6522 91.4464 65.1957 89.5711 67.0711C87.6957 68.9464 85.1522 70 82.5 70C79.8478 70 77.3043 68.9464 75.4289 67.0711C73.5536 65.1957 72.5 62.6522 72.5 60ZM67.5 75H97.5V95H90V110H75V95H67.5V75Z" fill="white"/>
</g>
</svg>
