<svg width="120" height="120" viewBox="0 0 120 120" fill="none" xmlns="http://www.w3.org/2000/svg">
<g id="mdi:mother-nurse">
<path id="Vector" d="M60.0003 10C63.9785 10 67.7938 11.5804 70.6069 14.3934C73.4199 17.2064 75.0003 21.0218 75.0003 25C75.0003 28.9782 73.4199 32.7936 70.6069 35.6066C67.7938 38.4196 63.9785 40 60.0003 40C56.022 40 52.2067 38.4196 49.3937 35.6066C46.5806 32.7936 45.0003 28.9782 45.0003 25C45.0003 21.0218 46.5806 17.2064 49.3937 14.3934C52.2067 11.5804 56.022 10 60.0003 10ZM100 90L90.0003 62.8C88.2503 57.85 86.7003 53.55 80.0003 50C73.1003 46.5 68.1003 45 60.0003 45C51.8503 45 46.9003 46.5 40.0003 50C33.3003 53.55 31.7503 57.85 30.0003 62.8L20.0003 90C18.4003 96.75 31.8003 102.2 40.5503 105.95V95C40.5503 90.25 44.8503 86.9 53.4503 84.85C54.2503 84.65 55.0003 84.55 55.6003 84.45C52.9003 80.35 51.8003 76.7 51.7003 76.4L60.5503 73.4C60.6003 73.5 63.1503 81.35 69.2003 85.3C70.2503 85.65 71.3003 86.05 72.3003 86.5C76.1503 88.2 78.4503 90.4 79.2003 93.05C72.5003 95.7 66.1003 97.05 60.0003 97.05L55.0003 96.55V109.7L60.0003 110C66.8503 110 73.3503 108.6 79.4503 105.95C88.2003 102.2 101.25 95.65 100 90ZM77.5003 85C75.5112 85 73.6035 84.2098 72.197 82.8033C70.7905 81.3968 70.0003 79.4891 70.0003 77.5C70.0003 75.5109 70.7905 73.6032 72.197 72.1967C73.6035 70.7902 75.5112 70 77.5003 70C79.4894 70 81.3971 70.7902 82.8036 72.1967C84.2101 73.6032 85.0003 75.5109 85.0003 77.5C85.0003 79.4891 84.2101 81.3968 82.8036 82.8033C81.3971 84.2098 79.4894 85 77.5003 85Z" fill="white"/>
</g>
</svg>
