<svg xmlns="http://www.w3.org/2000/svg" width="20" height="20" fill="none"><path fill="#699635" d="M10 19.375a9.375 9.375 0 1 0 0-18.75 9.375 9.375 0 1 0 0 18.75Z"/><path fill="#fff" d="M9.906 8.344c-.031-.281.125-.563.406-.5.219.031.469.25.344.468-.188.344-.688.344-1 .532.031.187.937-.031 1.093-.031.157 0 .313.062.22.25-.095.187-.407.187-.595.218-.187.031-.5.031-.593.188-.188.25.187.281.312.344.313.156-.187.312-.312.28-.469-.093-.563-.343-.844-.655-.281.374-1.156 1.218-1.344.343-.312.125-.625.281-.968.313.156-.219.468-.313.718-.438.313-.156.313-.437.5-.687.063.094 0 .219.032.344.25-.126.562-.376.437-.688 0-.031-.375-.781-.062-.656.28.125.187.406.25.625.093.406-.094.625-.407.875-.125.094-.468.469-.062.469.281 0 .531-.313.687-.5.188-.25.125-.5 0-.782-.093-.219-.312-.687-.031-.844.219.344.313.75.406 1.157.063.344.125.687.5.781-.031-.25.125-.438.344-.531-.156-.125-1.031.031-.687-.438.03-.219.656-.312.656-.437Z"/><path fill="#fff" d="M5.125 9.5c.156.438.687.282 1 .157.5-.25.5-.625.5-1.125-.188.093-.156.437-.219.593-.125.25-.531.47-.812.438-.407-.063-.594-.75-.282-1 .063.219-.093.687.282.719.28.03.843-.313.75-.625-.375.125-.594 0-.47-.407.095-.375.47-.093.626.094.594-.344-.469-1.656.156-2 .125.219.313.5.156.719-.187.25 0 .781.032 1.062.312-.28.062.22.312.25.156.032.219-.375.313-.375.03.094.03.375.187.344.188-.062-.031-.312.156-.375.063.156.032.625-.187.594-.188-.031-.156-.156-.375-.031-.188.093-.25 0-.375-.094-.031.375.094.781-.125 1.125-.188.281-.563.437-.875.5-.813.156-1.031-.656-.75-1.313.062.188-.063.532 0 .75Zm7.625.157c.156.406.469-.438.562-.563.25-.375.625.594.782-.031.093-.406-.032-.813-.063-1.219a1.34 1.34 0 0 0-.312-.75c-.188-.25-.375-.469-.282-.781.313.125.313.375.47.625.03-.188-.095-.438.03-.594.157-.219.282.375.282.438.03.156-.125.218-.032.468.063.188.188.375.313.532-.031-.188-.313-1.47 0-1.47.094 0 .187.376.187.438.063.188-.062.344-.062.563-.031.375.031.812.281 1.094.125.156.594.718.344.906-.188-.219-.313-.469-.469-.688 0 .25.063.532-.062.72-.125-.063-.063-.47-.063-.563 0-.344-.219-.625-.406-.907-.063.47.312 1.344-.125 1.688-.281.25-.656-.313-.75-.094-.094.156-.313.719-.563.656-.312-.062-.53-.937-.187-1.03.031.155.031.374.125.562Z"/><path fill="#fff" d="M6.063 7.532c.218.03 0-.72 0-.844.03-.125.125-.188.187-.063.094.188.094.407.125.594 0 .156.031.344-.094.469-.187.187-.437.094-.531-.156-.437.375.125 1.03-.25 1.406-.062-.344 0-.719-.125-1.031-.062-.157-.344-.094-.375-.375 0-.125.094-.47-.031-.563-.063.125-.125 1.094-.438.813-.25-.188-.187-.813-.093-1.063.187.094-.032.781.218.813.125.03.157-.5.188-.594.094-.156.406-.594.344-.156-.032.187-.188.78.187.75-.031-.313-.062-.625-.125-.938-.031-.156.063-.469.188-.187.093.187.03.28 0 .468-.032.22.062.438.093.625.188-.156-.062-.75.094-1 .375.22-.031.97.438 1.032Zm4.03.062c-.155.219-.437.031-.562-.125-.156.188-.468.5-.718.25-.188-.187.03-.531-.125-.687-.094.156-.25.906-.532.562-.156-.187-.375-.844-.031-1-.031.25-.094.531.063.75.156.219.312-.344.375-.469.093-.218.406-.593.343-.125-.031.188-.093.625.094.75.125.094.281-.062.344-.156.125-.156.062-.406.031-.594-.031-.156-.094-.343 0-.5.125-.187.219.25.219.344 0 .094.125 1.063.344.75.218-.281-.375-.906.03-1.062.157-.063.438.562.126.375.094.28.219.687 0 .937Zm1.188.375c.031.406.375 1.531-.094 1.781-.062-.125 0-.312.032-.468.031-.282-.031-.563-.063-.813-.062-.594-.125-1.031-.531-1.5-.094-.125-.25-.219-.281-.406 0-.063-.031-.344.094-.281.093.03.624.5.343.5.031.062.156.312.219.312 0-.156-.188-.625 0-.719.156-.093.344.5.281.625-.062.157-.062.25 0 .47.063.25.219.468.344.687.188.312.563.75.469 1.156-.188-.094-.313-.531-.406-.719-.063-.156-.126-.312-.22-.437-.03-.032-.218-.282-.187-.125v-.063Zm4.344.594c.031.656-.188 1.5-1 1.5 0-.188.406-.375.531-.469.313-.25.281-.719.25-1.062-.031-.47-.062-.938-.156-1.407-.031-.28-.188-.687.063-.875.156.125.374.47.28.594-.155.188 0 1.594.032 1.719Z"/><path fill="#fff" d="M11.625 9.97c.813-.47.563-1.47.5-2.25-.031-.22-.031-.438-.063-.657 0-.156-.124-.375-.062-.531.156-.406.281-.031.313.219.03.156-.094.187-.063.312.031.25.031.5.063.75.03.406.093.813.062 1.188-.063.593-.375 1.25-1.094 1.125.031-.063.25-.094.344-.157Zm1.313-1.563c.03.312.156.875 0 1.156-.126.188-.126-.125-.157-.156-.031-.25-.031-.5-.031-.781-.063-.688-.281-1.375-.281-2.032 0-.843.719.47.312.407.031.468.094.937.156 1.406ZM7.843 6.813c.062.156-.719.563-.813.563C7 7.219 7.375 7 7.47 6.938c.093-.094.156-.094.125-.219-.063-.125-.032-.343.125-.406.312-.094.093.375.125.5ZM4.625 9.594c0 .25.094.125.219.063.062.125-.094.469-.25.312-.219-.218-.032-.718.062-.937.063.156-.062.406-.031.562Zm8.813-1.937c.03-.125-.063-.25.03-.375.126-.156.25.031.188.094-.062.062-.156-.063-.156.125 0 .093.063.28-.031.375-.063-.032-.344-.438-.313-.5.125-.125.25.25.281.28Zm-8.157.531c-.062.125-.781.531-.812.438 0-.094.906-.625.812-.438Zm5.313 1.594c-.094.281.312.031.406 0-.125.219-.563.406-.5 0-.031 0-.094.031-.125.031-.063-.062.313-.312.219-.031ZM14 9.688c.094 0 .25.281.156.344-.062.062-.344.094-.187-.031.187-.188.031-.313.031-.313ZM9.594 8.094c.031-.062.031-.156.062-.218.313.25-.5.656-.344.062.063.063.063.156.126.188 0-.063.03-.157.03-.22.063.063.063.157.126.188Zm3.656.407c-.094-.125.469-.47.563-.532.062.094-.376.438-.563.532ZM15 7.25c-.063-.188-.25-.563-.063-.72.126.095.188.563.063.72Zm-3.406-.625c-.031-.063-.125-.125-.125-.22.031-.124.094-.093.156-.03.094.125.156.468 0 .562 0-.094.031-.219-.031-.312Zm-3.813.843c0 .188-.312.375-.343.125-.032-.093.125-.437.187-.343-.125.28-.125.375.156.218Z"/><path fill="#fff" d="M11.688 7.125c.125.312.063.031.188-.031.218.406-.47.312-.313.062a.237.237 0 0 1 .063.125c.03-.031.03-.094.062-.156Zm2 1.437c-.156-.125.031-.28.125-.125.063.094.063.344-.063.407 0-.094.032-.22-.062-.282Zm-6.406.688c0-.063-.032-.531.062-.469.125.063.094.406-.062.469ZM5.969 6.312c.031.094.063.22.125.063.25.281-.625.187-.312-.094 0 .031.062.219.187.031ZM9.157 7c0-.125-.188-.656-.031-.656.187.03.156.5.03.656Zm-4.375-.281c-.094-.032.062-.188 0-.313-.063.031-.125-.062-.063-.125.25-.187.156.438.063.438Zm8.093 6.343-.124-.375-.125.375H5.782s.062.563.75.563h6.062v.437h1.657v-1h-1.375Zm1.063.75h-1.125V13.5h1.125v.312Z"/></svg>