<svg xmlns="http://www.w3.org/2000/svg" width="237" height="60" fill="none"><g clip-path="url(#a)"><path fill="#2B3990" d="M2.148 6.422h19.529v3.99H10.475v8.362h9.577V22.6h-9.577V35.78H2.148V6.422ZM31.698 9.59a5.008 5.008 0 0 1-3.375.822 5.603 5.603 0 0 1-3.557-.782 2.894 2.894 0 0 1-.984-1.213 2.854 2.854 0 0 1-.204-1.54 2.861 2.861 0 0 1 .188-1.51 2.9 2.9 0 0 1 .937-1.205 5.28 5.28 0 0 1 3.375-.822 5.69 5.69 0 0 1 3.556.783c.437.301.78.718.99 1.201.21.484.279 1.016.199 1.537.068.512 0 1.033-.197 1.512a2.985 2.985 0 0 1-.928 1.218Zm-7.407 2.833 8.04-1.064V35.78H24.26l.032-23.358ZM44.033 35.78H35.96V12.517l8.073-1.189v2.425l.879-.743a8.518 8.518 0 0 1 2.012-1.11c.64-.2 1.311-.281 1.98-.243.356-.002.711.024 1.062.078.382.065.754.175 1.11.329l.411.164v7.642l-2.875-1.642a5.58 5.58 0 0 0-1.244-.517c-.431-.12-.87-.21-1.315-.265a11.405 11.405 0 0 0-1.165-.102h-.729c-.079 0-.126 0-.126.039V35.78ZM53.278 30.024l.919.532c.723.356 1.466.672 2.226.946.626.22 1.291.423 1.996.603a8.346 8.346 0 0 0 1.941.266c.386.001.77-.049 1.141-.15.352-.083.689-.22.998-.406.27-.158.505-.368.69-.618.169-.224.243-.505.206-.782a2.77 2.77 0 0 0-.064-.68 1.444 1.444 0 0 0-.349-.595 6.234 6.234 0 0 0-.879-.783c-.388-.281-.927-.657-1.584-1.126l-2.702-1.807a16.27 16.27 0 0 1-2.044-1.565 8.546 8.546 0 0 1-1.354-1.564 5.295 5.295 0 0 1-.745-1.659 7.574 7.574 0 0 1-.27-1.861 7.033 7.033 0 0 1 .603-2.942 6.56 6.56 0 0 1 1.663-2.26 7.322 7.322 0 0 1 2.567-1.416 10.417 10.417 0 0 1 3.288-.493h1.244c.42 0 .895.055 1.418.125a71.1 71.1 0 0 1 1.814.266c.681.11 1.465.266 2.376.454l1.498.328v4.115l-.911-.376a41.085 41.085 0 0 0-2.147-.696 29.87 29.87 0 0 0-1.917-.47 8.147 8.147 0 0 0-1.815-.226 2.96 2.96 0 0 0-1.663.47 1.394 1.394 0 0 0-.665 1.299 4.854 4.854 0 0 0 0 .633c.034.192.122.37.253.516.19.21.405.397.642.555.293.204.72.485 1.275.837v.063l2.836 1.752a20.519 20.519 0 0 1 2.25 1.643 8.3 8.3 0 0 1 1.474 1.604c.361.533.63 1.123.792 1.744a8.365 8.365 0 0 1-.396 5.226 7.282 7.282 0 0 1-1.743 2.487 7.945 7.945 0 0 1-2.725 1.565c-1.113.381-2.285.57-3.462.555a21.07 21.07 0 0 1-3.62-.39 63.992 63.992 0 0 1-4.667-1.002l-.499-.125.11-4.592ZM82.344 29.672c.027.3.169.58.397.782.269.19.582.308.91.344.546.083 1.097.132 1.648.149.195.019.392.019.587 0 .166 0 .412-.047.744-.102l.793-.078v3.864c-.721.22-1.165.344-1.331.368l-1.712.454c-.578.14-1.069.25-1.457.328-.388.078-.737.149-1.038.188-.301.039-.602.078-.88.102-.277.023-.578.039-.91.039a5.258 5.258 0 0 1-2.316-.208 5.21 5.21 0 0 1-1.992-1.184 5.125 5.125 0 0 1-1.27-1.924 5.072 5.072 0 0 1-.293-2.277V16.663h-2.376v-3.865l2.796-.986a2.82 2.82 0 0 0 .887-.54c.246-.196.471-.416.674-.656l.27-.329 2.328-3.246h3.454v4.85h5.126v4.772h-5.126v11.593c-.007.473.022.947.087 1.416ZM97.705 29.038l1.046.532c.998.438 1.862.782 2.598 1.048.737.266 1.522.493 2.377.704a9.835 9.835 0 0 0 2.329.305c.447-.001.89-.07 1.315-.203a3.97 3.97 0 0 0 1.149-.579c.321-.24.591-.54.792-.884.207-.338.302-.732.27-1.127a4.023 4.023 0 0 0-.064-.782 1.553 1.553 0 0 0-.333-.68 4.652 4.652 0 0 0-.847-.783c-.396-.297-.935-.68-1.585-1.15l-3.541-2.425a22.21 22.21 0 0 1-2.376-1.893 9.864 9.864 0 0 1-1.585-1.87 7.204 7.204 0 0 1-.91-2.033 8.742 8.742 0 0 1-.294-2.347 9.283 9.283 0 0 1 .681-3.575 8.603 8.603 0 0 1 1.917-2.84 9.066 9.066 0 0 1 2.916-1.87 9.61 9.61 0 0 1 3.644-.68c1.333.036 2.659.196 3.961.477 1.584.313 3.298.704 5.141 1.174l.5.125v4.764l-.912-.407c-.918-.36-1.711-.65-2.376-.868a26.624 26.624 0 0 0-2.123-.595 8.692 8.692 0 0 0-2.06-.328c-.86-.019-1.7.258-2.377.782a2.348 2.348 0 0 0-.741.897 2.325 2.325 0 0 0-.217 1.137c-.004.284.026.567.087.845.064.25.186.484.356.68.236.274.502.52.793.736.446.355.912.687 1.394.993l4.119 2.754a18.01 18.01 0 0 1 2.211 1.705 9.154 9.154 0 0 1 1.513 1.768c.402.613.699 1.287.879 1.995.189.781.279 1.583.27 2.386 0 1.267-.27 2.52-.793 3.677a9.192 9.192 0 0 1-2.123 2.98 9.334 9.334 0 0 1-3.129 1.932 10.75 10.75 0 0 1-3.961.704 23.162 23.162 0 0 1-3.644-.336 37.337 37.337 0 0 1-4.975-1.19l-1.379-.414.087-5.241ZM129.766 29.672c.026.3.168.58.396.782.272.19.588.308.919.344.545.083 1.096.132 1.648.149.192.019.386.019.578 0 .166 0 .42-.047.792-.102l.753-.078v3.864c-.729.22-1.173.344-1.339.368l-1.703.454c-.587.14-1.07.25-1.458.328-.388.078-.737.149-1.046.188-.309.04-.594.078-.871.102-.278.023-.586.039-.919.039a5.267 5.267 0 0 1-2.314-.211 5.215 5.215 0 0 1-1.99-1.185 5.126 5.126 0 0 1-1.27-1.922 5.086 5.086 0 0 1-.297-2.276V16.663h-2.329v-3.865l2.789-.986c.33-.123.633-.306.895-.54.245-.194.469-.414.666-.656l.269-.329 2.377-3.286h3.454v4.85h5.125v4.772h-5.125v11.633a9.295 9.295 0 0 0 0 1.416ZM152.606 30.845a29.627 29.627 0 0 0 2.186-.329l.666-.125.617 4.029-1.457.328-2.496.618c-1.09.282-2.195.502-3.311.657a20.85 20.85 0 0 1-2.599.165 10.335 10.335 0 0 1-4.206-.822 9.276 9.276 0 0 1-3.232-2.346 10.692 10.692 0 0 1-2.076-3.622 13.959 13.959 0 0 1-.729-4.647 16.955 16.955 0 0 1 .792-5.304 12.005 12.005 0 0 1 2.266-4.154 10.213 10.213 0 0 1 3.581-2.706 11.042 11.042 0 0 1 4.642-.939 10.591 10.591 0 0 1 3.708.634 7.388 7.388 0 0 1 2.907 1.955c.419.427.811.879 1.173 1.354.341.457.608.963.792 1.502.206.642.352 1.302.436 1.97.104.923.151 1.85.142 2.778v1.44l-12.24 1.314a7.496 7.496 0 0 0 2.163 4.732 7.189 7.189 0 0 0 4.706 1.565c.523.01 1.047-.005 1.569-.047Zm-4.057-11.14c.012-.714-.03-1.427-.126-2.135-.05-.45-.176-.89-.373-1.299a1.372 1.372 0 0 0-.626-.641 2.158 2.158 0 0 0-.871-.165 1.985 1.985 0 0 0-1.084.278 1.952 1.952 0 0 0-.754.818c-.444.782-.665 2.159-.665 4.208v.165l4.499-.595v-.634ZM159.292 44.91V12.344l8.081-.986v1.94c.221-.132.451-.25.689-.352l.792-.344c.723-.31 1.467-.57 2.226-.782a7.085 7.085 0 0 1 1.775-.204c1.22 0 2.421.31 3.485.9a7.895 7.895 0 0 1 2.71 2.347 11.397 11.397 0 0 1 1.703 3.575c.418 1.458.623 2.967.61 4.482a15.343 15.343 0 0 1-.919 5.242 12.862 12.862 0 0 1-2.432 4.193 11.283 11.283 0 0 1-3.716 2.784 11.088 11.088 0 0 1-4.753 1.01c-.36.004-.72-.017-1.077-.063-.341-.04-.697-.102-1.086-.18v9.004h-8.088Zm12.121-14.95c.908-1.199 1.365-3.102 1.37-5.71.006-2.607-.404-4.48-1.228-5.616a4.283 4.283 0 0 0-1.6-1.324 4.343 4.343 0 0 0-2.044-.42 2.816 2.816 0 0 0-.538.038V31.83h.166a4.692 4.692 0 0 0 2.17-.463 4.633 4.633 0 0 0 1.704-1.406ZM5.492 54.14c.011.293-.05.584-.176.848a1.82 1.82 0 0 1-.553.67 3.11 3.11 0 0 1-1.949.548 6.415 6.415 0 0 1-1.125-.094 3.2 3.2 0 0 1-.887-.282V54.76c.312.137.636.25.966.336.37.096.75.146 1.133.149a1.84 1.84 0 0 0 1.117-.29.917.917 0 0 0 .365-.782.953.953 0 0 0-.167-.571 1.58 1.58 0 0 0-.53-.415 8.16 8.16 0 0 0-.951-.43 4.776 4.776 0 0 1-.959-.477 2.164 2.164 0 0 1-.657-.65 1.96 1.96 0 0 1-.238-1 1.65 1.65 0 0 1 .665-1.346c.501-.358 1.11-.537 1.727-.509a5.072 5.072 0 0 1 2.084.438L5 50.065a6.463 6.463 0 0 0-.855-.29 3.853 3.853 0 0 0-.903-.109 1.407 1.407 0 0 0-.927.266.847.847 0 0 0-.317.688.969.969 0 0 0 .15.564c.13.176.301.319.5.414.29.151.59.287.895.407.364.143.716.313 1.053.509.274.16.503.386.666.657.165.296.245.632.23.97ZM7.464 48.54a.711.711 0 0 1 .436.14.586.586 0 0 1 .182.478.588.588 0 0 1-.182.477.711.711 0 0 1-.436.149.703.703 0 0 1-.443-.149.57.57 0 0 1-.183-.477.557.557 0 0 1 .183-.477.696.696 0 0 1 .443-.141Zm.539 2.08v5.477H6.91V50.62h1.093ZM16.036 50.519a1.917 1.917 0 0 1 1.403.485 2.104 2.104 0 0 1 .467 1.564v3.568h-1.077v-3.458c0-.845-.349-1.267-1.046-1.267a1.2 1.2 0 0 0-1.054.446c-.246.401-.36.869-.325 1.337v2.95h-1.077v-3.466c0-.845-.349-1.267-1.054-1.267a1.16 1.16 0 0 0-1.077.492 2.95 2.95 0 0 0-.293 1.44v2.761H9.81v-5.476h.871l.15.736h.064c.16-.276.4-.496.69-.634.292-.134.611-.203.934-.203.34-.045.686.017.99.177.302.16.546.41.697.715h.064c.165-.298.424-.534.737-.673.322-.15.673-.227 1.03-.227ZM22.461 50.519a2.035 2.035 0 0 1 1.585.712 3.968 3.968 0 0 1 0 4.247 2.026 2.026 0 0 1-1.584.728 1.945 1.945 0 0 1-.938-.18 1.919 1.919 0 0 1-.734-.602h-.072c0 .125 0 .266.048.438.047.172 0 .313 0 .438v2.237h-1.077v-7.916h.918l.151.735h.055c.165-.24.382-.44.634-.587.308-.174.66-.26 1.014-.25Zm-.27.892a1.258 1.258 0 0 0-1.092.438 2.416 2.416 0 0 0-.317 1.345v.165a2.826 2.826 0 0 0 .309 1.455 1.218 1.218 0 0 0 1.133.516 1.09 1.09 0 0 0 .583-.13c.178-.097.324-.242.423-.418.239-.439.354-.933.332-1.431a2.587 2.587 0 0 0-.332-1.416 1.137 1.137 0 0 0-1.038-.524ZM27.27 56.104h-1.118v-7.728h1.094l.023 7.728ZM29.639 48.54a.712.712 0 0 1 .435.14.586.586 0 0 1 .183.478.59.59 0 0 1-.183.477.71.71 0 0 1-.435.149.726.726 0 0 1-.452-.149.593.593 0 0 1-.174-.477.579.579 0 0 1 .174-.477.72.72 0 0 1 .452-.141Zm.538 2.08v5.477h-1.093V50.62h1.093ZM34.217 56.206a2.589 2.589 0 0 1-1.854-.665 2.876 2.876 0 0 1-.665-2.143 3.405 3.405 0 0 1 .34-1.643c.198-.388.514-.706.903-.908.423-.208.89-.312 1.363-.305.293.001.586.036.871.102.232.05.458.123.674.22l-.333.875a4.617 4.617 0 0 0-.61-.195 2.494 2.494 0 0 0-.61-.086c-1.006 0-1.505.657-1.505 1.955-.036.501.092 1 .364 1.424a1.28 1.28 0 0 0 1.093.485 2.93 2.93 0 0 0 .793-.102c.225-.062.443-.148.65-.258v.931c-.202.12-.421.206-.65.258a3.784 3.784 0 0 1-.824.055ZM37.687 48.54a.711.711 0 0 1 .436.14.562.562 0 0 1 .182.478.564.564 0 0 1-.182.477.711.711 0 0 1-.436.149.703.703 0 0 1-.444-.149.593.593 0 0 1-.182-.477.58.58 0 0 1 .182-.477.696.696 0 0 1 .444-.141Zm.538 2.08v5.477h-1.093V50.62h1.093ZM42.037 55.33c.147.011.296.011.443 0 .134-.017.264-.052.388-.102v.783a2.167 2.167 0 0 1-.475.14 3.06 3.06 0 0 1-.594.055c-.271 0-.54-.05-.792-.149a1.198 1.198 0 0 1-.602-.531 2.05 2.05 0 0 1-.222-1.049V51.45h-.792v-.493l.792-.407.38-1.157h.642v1.228h1.584v.829h-1.584v3.012a.857.857 0 0 0 .222.657.794.794 0 0 0 .61.211ZM43.24 50.62h1.173l1.156 3.13c.087.242.167.47.23.688.064.213.115.43.15.65.04-.18.088-.384.159-.626.071-.243.159-.478.246-.72l1.093-3.13h1.172l-2.376 6.259a3.07 3.07 0 0 1-.793 1.244 1.86 1.86 0 0 1-1.307.453c-.145.01-.29.01-.435 0l-.325-.054v-.9H43.993a1.064 1.064 0 0 0 .792-.266 1.78 1.78 0 0 0 .452-.704l.23-.594-2.227-5.43ZM52.953 48.54a.711.711 0 0 1 .436.14.587.587 0 0 1 .182.478.588.588 0 0 1-.182.477.71.71 0 0 1-.436.149.727.727 0 0 1-.452-.149.593.593 0 0 1-.174-.477.58.58 0 0 1 .175-.477.72.72 0 0 1 .451-.141Zm.539 2.08v5.477h-1.093V50.62h1.093ZM58.99 54.563a1.404 1.404 0 0 1-.602 1.22 2.823 2.823 0 0 1-1.656.423 5.286 5.286 0 0 1-1.006-.086 3.195 3.195 0 0 1-.792-.25v-.947c.272.129.556.233.847.313.309.092.629.139.95.14a1.6 1.6 0 0 0 .888-.195.62.62 0 0 0 .278-.516.566.566 0 0 0-.103-.336 1.312 1.312 0 0 0-.389-.306 6.97 6.97 0 0 0-.792-.36 6.543 6.543 0 0 1-.903-.422 1.576 1.576 0 0 1-.563-.5 1.255 1.255 0 0 1-.198-.783 1.23 1.23 0 0 1 .587-1.095c.46-.255.985-.375 1.513-.344.32 0 .638.035.95.102.3.068.592.165.872.289l-.357.782a6.443 6.443 0 0 0-.744-.258 2.909 2.909 0 0 0-.793-.11 1.467 1.467 0 0 0-.744.157.498.498 0 0 0-.268.358.486.486 0 0 0 .133.424c.117.122.257.22.412.29.198.094.468.211.792.344.306.105.6.239.88.399.226.115.42.284.562.493.158.228.243.498.246.774ZM65.17 55.33c.147.011.295.011.443 0 .133-.017.264-.052.388-.102v.783a2.47 2.47 0 0 1-.475.14 3.06 3.06 0 0 1-.594.055c-.271 0-.54-.05-.793-.149a1.247 1.247 0 0 1-.61-.531 2.138 2.138 0 0 1-.213-1.049V51.45h-.793v-.493l.793-.407.38-1.157h.665v1.228h1.585v.829H64.36v3.012a.887.887 0 0 0 .222.657.793.793 0 0 0 .586.211ZM68.306 50.44v.517c0 .172 0 .297-.047.407h.079c.167-.276.416-.495.713-.626.305-.14.638-.209.974-.203a2.133 2.133 0 0 1 1.497.477 1.99 1.99 0 0 1 .523 1.564v3.567h-1.1v-3.457c0-.853-.381-1.275-1.142-1.275a1.274 1.274 0 0 0-1.172.5c-.241.441-.354.94-.325 1.44v2.753h-1.093v-7.728h1.093v2.065ZM75.99 50.52a2.258 2.258 0 0 1 1.72.672c.443.5.67 1.151.634 1.815v.587h-3.732c-.016.469.142.928.444 1.29a1.587 1.587 0 0 0 1.204.446c.32.004.638-.027.95-.094.297-.071.586-.168.864-.29v.893a3.991 3.991 0 0 1-.847.273c-.331.068-.669.1-1.006.094a3.035 3.035 0 0 1-1.426-.313 2.252 2.252 0 0 1-.959-.938 3.174 3.174 0 0 1-.349-1.565 3.506 3.506 0 0 1 .317-1.564c.189-.403.491-.743.872-.978a2.512 2.512 0 0 1 1.315-.329Zm0 .836a1.25 1.25 0 0 0-.942.376c-.256.3-.401.678-.412 1.072h2.614c.01-.374-.1-.742-.316-1.049a1.1 1.1 0 0 0-.943-.399ZM86.265 54.563a1.393 1.393 0 0 1-.594 1.22 2.823 2.823 0 0 1-1.656.423 5.23 5.23 0 0 1-1.006-.086 3.397 3.397 0 0 1-.792-.25v-.947c.273.129.556.234.848.313.31.091.634.139.958.141a1.6 1.6 0 0 0 .888-.196.613.613 0 0 0 .269-.516.62.62 0 0 0-.095-.336 1.312 1.312 0 0 0-.388-.305 6.648 6.648 0 0 0-.832-.36c-.311-.12-.613-.26-.903-.423a1.64 1.64 0 0 1-.555-.5 1.255 1.255 0 0 1-.198-.782 1.223 1.223 0 0 1 .578-1.096 2.817 2.817 0 0 1 1.585-.383c.32.001.638.035.95.102.3.069.591.166.872.29l-.365.781a5.857 5.857 0 0 0-.736-.258 2.913 2.913 0 0 0-.793-.11 1.513 1.513 0 0 0-.792.157.48.48 0 0 0-.253.423.497.497 0 0 0 .119.336c.12.122.262.22.42.29.198.093.467.21.792.344a5.8 5.8 0 0 1 .88.399c.223.115.414.284.554.492.17.246.256.54.245.837ZM89.855 50.52a2.258 2.258 0 0 1 1.719.672c.44.501.665 1.152.626 1.815v.587h-3.724c-.024.47.135.932.444 1.29a1.587 1.587 0 0 0 1.204.446c.32.004.638-.027.95-.094.294-.07.58-.167.856-.29v.893c-.268.123-.55.214-.84.273a4.747 4.747 0 0 1-1.014.094 3.082 3.082 0 0 1-1.425-.313 2.292 2.292 0 0 1-.96-.938 3.173 3.173 0 0 1-.34-1.565 3.505 3.505 0 0 1 .317-1.564c.188-.403.491-.743.872-.978a2.497 2.497 0 0 1 1.315-.329Zm0 .836a1.234 1.234 0 0 0-.943.376c-.26.3-.407.678-.42 1.072h2.622a1.736 1.736 0 0 0-.309-1.049 1.1 1.1 0 0 0-.95-.399ZM95.867 56.206a2.578 2.578 0 0 1-1.822-.665 2.876 2.876 0 0 1-.697-2.135 3.405 3.405 0 0 1 .34-1.643c.203-.397.532-.719.936-.915.42-.21.884-.314 1.354-.306.294.001.586.035.872.102.232.048.458.122.673.22l-.325.875a4.746 4.746 0 0 0-.618-.195 2.494 2.494 0 0 0-.61-.086c-.998 0-1.505.657-1.505 1.955-.034.502.097 1.001.372 1.424a1.265 1.265 0 0 0 1.094.485c.267.003.534-.03.792-.102.228-.062.448-.148.657-.258v.931a2.347 2.347 0 0 1-.65.258c-.284.05-.574.07-.863.055ZM101.556 50.52h.308l.294.038-.111 1.01a2.161 2.161 0 0 0-.555-.071 1.602 1.602 0 0 0-.787.212 1.57 1.57 0 0 0-.575.57c-.155.28-.231.596-.222.915v2.887h-1.094v-5.476h.864l.15 1.025c.183-.3.419-.566.698-.782a1.596 1.596 0 0 1 1.03-.329ZM105.271 50.52a2.254 2.254 0 0 1 1.719.672c.441.501.665 1.152.626 1.815v.587h-3.723c-.025.47.134.932.443 1.29a1.59 1.59 0 0 0 1.204.446c.32.004.639-.027.951-.094.296-.071.585-.168.864-.29v.893a4.111 4.111 0 0 1-.848.273 4.718 4.718 0 0 1-1.006.094 3.09 3.09 0 0 1-1.434-.313 2.278 2.278 0 0 1-.951-.938 3.174 3.174 0 0 1-.348-1.565 3.504 3.504 0 0 1 .317-1.564c.188-.403.491-.743.871-.978a2.497 2.497 0 0 1 1.315-.329Zm0 .836a1.248 1.248 0 0 0-.943.376 1.78 1.78 0 0 0-.42 1.072h2.623a1.794 1.794 0 0 0-.317-1.049 1.099 1.099 0 0 0-.943-.399ZM111.078 55.33c.148.011.296.011.444 0 .133-.017.264-.051.388-.102v.783a2.164 2.164 0 0 1-.475.14 3.063 3.063 0 0 1-.594.055 2.212 2.212 0 0 1-.832-.149 1.225 1.225 0 0 1-.602-.531 2.04 2.04 0 0 1-.222-1.049V51.45h-.792v-.493l.792-.407.38-1.157h.673v1.228h1.585v.829h-1.585v3.012a.872.872 0 0 0 .222.657.8.8 0 0 0 .618.211ZM120.798 53.358a2.946 2.946 0 0 1-.705 2.105 2.53 2.53 0 0 1-1.917.743 2.616 2.616 0 0 1-1.339-.336 2.308 2.308 0 0 1-.911-.97 3.29 3.29 0 0 1-.341-1.565 2.926 2.926 0 0 1 .705-2.096 2.52 2.52 0 0 1 1.917-.782 2.67 2.67 0 0 1 1.339.336c.395.225.715.56.919.962a3.24 3.24 0 0 1 .333 1.603Zm-4.088 0c-.03.507.094 1.011.357 1.448.126.174.296.314.493.404.197.09.415.13.631.112a1.29 1.29 0 0 0 1.133-.516 2.53 2.53 0 0 0 .357-1.447 2.468 2.468 0 0 0-.365-1.44 1.294 1.294 0 0 0-1.132-.5 1.283 1.283 0 0 0-.629.106 1.256 1.256 0 0 0-.496.394 2.527 2.527 0 0 0-.349 1.44ZM124.989 51.45h-1.395v4.694h-1.085V51.45h-.943v-.509l.943-.336v-.344a1.94 1.94 0 0 1 .483-1.494c.384-.313.874-.47 1.371-.438.22-.003.441.015.657.054.199.047.365.086.507.133l-.285.83a3.816 3.816 0 0 0-.38-.102 2.102 2.102 0 0 0-.452-.047c-.538 0-.792.36-.792 1.072v.352h1.371v.829ZM129.932 50.44V51.365a1.58 1.58 0 0 1 .713-.626c.305-.14.638-.209.974-.203a2.135 2.135 0 0 1 1.498.477c.195.209.342.456.432.726.091.27.121.556.091.838v3.567h-1.086v-3.457c0-.853-.38-1.275-1.141-1.275a1.281 1.281 0 0 0-1.172.5 2.67 2.67 0 0 0-.309 1.44v2.753h-1.085v-7.728h1.085v2.065ZM137.585 50.52a2.343 2.343 0 0 1 1.585.453 1.78 1.78 0 0 1 .522 1.424v3.708h-.792l-.214-.783a2.36 2.36 0 0 1-.792.65 2.33 2.33 0 0 1-1.093.21 1.91 1.91 0 0 1-1.244-.398 1.561 1.561 0 0 1-.499-1.26 1.426 1.426 0 0 1 .642-1.267 3.616 3.616 0 0 1 1.964-.477h.951v-.305a.938.938 0 0 0-.621-1.055.967.967 0 0 0-.44-.048 2.828 2.828 0 0 0-.793.125c-.259.078-.51.178-.752.297l-.349-.782c.287-.148.59-.263.903-.344a3.957 3.957 0 0 1 1.022-.149Zm.262 2.972a2.55 2.55 0 0 0-1.315.313.884.884 0 0 0-.365.782.778.778 0 0 0 .254.618c.197.135.433.204.673.196a1.6 1.6 0 0 0 1.062-.36 1.311 1.311 0 0 0 .427-1.064v-.485h-.736ZM144.192 50.52a2.047 2.047 0 0 1 1.584.711 3.22 3.22 0 0 1 .61 2.128 3.183 3.183 0 0 1-.618 2.12 2 2 0 0 1-.707.543 2.028 2.028 0 0 1-.877.184 2.067 2.067 0 0 1-1.03-.227 2.065 2.065 0 0 1-.634-.547h-.071c0 .125 0 .266.048.438.047.172 0 .313 0 .438v2.237h-1.094v-7.924h.888l.15.735h.056c.164-.239.381-.44.633-.586.322-.183.691-.27 1.062-.25Zm-.262.891a1.258 1.258 0 0 0-1.093.438c-.241.404-.354.87-.325 1.338v.164a2.827 2.827 0 0 0 .309 1.455 1.195 1.195 0 0 0 1.133.516 1.094 1.094 0 0 0 1.03-.563c.24-.439.354-.933.333-1.431a2.589 2.589 0 0 0-.333-1.416 1.129 1.129 0 0 0-1.022-.5h-.032ZM150.704 50.519a2.049 2.049 0 0 1 1.584.712 3.22 3.22 0 0 1 .61 2.127 3.183 3.183 0 0 1-.618 2.12 2 2 0 0 1-.707.544 2.03 2.03 0 0 1-.877.184 2.063 2.063 0 0 1-1.03-.227 1.983 1.983 0 0 1-.634-.547h-.087c0 .125.04.265.055.438.016.172 0 .313 0 .438v2.237h-1.093v-7.924h.888l.15.735H149a1.908 1.908 0 0 1 1.672-.837h.032Zm-.254.892a1.255 1.255 0 0 0-1.093.438c-.241.404-.354.87-.325 1.337v.165a2.827 2.827 0 0 0 .309 1.455 1.195 1.195 0 0 0 1.133.516 1.092 1.092 0 0 0 1.006-.548 2.75 2.75 0 0 0 .333-1.431 2.589 2.589 0 0 0-.333-1.416 1.128 1.128 0 0 0-1.03-.516ZM154.982 48.54a.712.712 0 0 1 .436.14.576.576 0 0 1 .182.478.586.586 0 0 1-.182.477.71.71 0 0 1-.436.149.725.725 0 0 1-.451-.149.59.59 0 0 1-.174-.477.581.581 0 0 1 .174-.477.72.72 0 0 1 .451-.141Zm.531 2.08v5.477h-1.085V50.62h1.085ZM160.14 50.519a2.075 2.075 0 0 1 1.481.485 1.986 1.986 0 0 1 .515 1.565v3.567h-1.078v-3.45c0-.853-.38-1.275-1.14-1.275a1.314 1.314 0 0 0-1.181.492c-.238.442-.347.94-.317 1.44v2.761h-1.093v-5.476h.864l.158.736h.103a1.58 1.58 0 0 1 .737-.634 2.49 2.49 0 0 1 .951-.211ZM166.105 50.52a2.254 2.254 0 0 1 1.719.672c.441.501.665 1.152.626 1.815v.587h-3.723c-.025.47.134.932.443 1.29a1.59 1.59 0 0 0 1.204.446c.32.004.639-.027.951-.094.296-.071.585-.168.864-.29v.893a4.111 4.111 0 0 1-.848.273 4.718 4.718 0 0 1-1.006.094 3.09 3.09 0 0 1-1.434-.313 2.278 2.278 0 0 1-.951-.938 3.174 3.174 0 0 1-.348-1.565 3.504 3.504 0 0 1 .317-1.564c.188-.403.491-.743.871-.978a2.497 2.497 0 0 1 1.315-.329Zm0 .836a1.248 1.248 0 0 0-.943.376 1.774 1.774 0 0 0-.42 1.072h2.623a1.794 1.794 0 0 0-.317-1.049 1.099 1.099 0 0 0-.943-.399ZM173.599 54.563a1.412 1.412 0 0 1-.594 1.22 2.825 2.825 0 0 1-1.656.423 5.233 5.233 0 0 1-1.006-.086 3.266 3.266 0 0 1-.792-.25v-.947c.273.129.556.234.847.313.309.092.629.14.951.141.312.023.623-.045.895-.196a.61.61 0 0 0 .27-.516.57.57 0 0 0-.103-.336 1.264 1.264 0 0 0-.381-.305 6.57 6.57 0 0 0-.792-.36 7.048 7.048 0 0 1-.903-.423 1.66 1.66 0 0 1-.562-.5 1.307 1.307 0 0 1-.191-.782 1.232 1.232 0 0 1 .579-1.096 2.814 2.814 0 0 1 1.584-.383c.32.001.638.035.951.102.299.07.59.167.871.29l-.364.781a5.622 5.622 0 0 0-.745-.258 2.847 2.847 0 0 0-.792-.11 1.5 1.5 0 0 0-.753.157.466.466 0 0 0-.253.423.495.495 0 0 0 .119.336c.12.122.262.22.42.29.19.093.459.21.792.344.304.108.598.242.879.399.224.115.415.284.555.492.145.255.206.547.174.837ZM178.685 54.564a1.412 1.412 0 0 1-.594 1.22 2.826 2.826 0 0 1-1.656.422 5.233 5.233 0 0 1-1.006-.086 3.398 3.398 0 0 1-.792-.25v-.947c.273.129.556.234.848.313.311.091.634.139.958.141a1.6 1.6 0 0 0 .887-.195.622.622 0 0 0 .278-.516.62.62 0 0 0-.103-.337 1.328 1.328 0 0 0-.388-.305 6.68 6.68 0 0 0-.832-.36 6.985 6.985 0 0 1-.903-.422 1.634 1.634 0 0 1-.555-.501 1.258 1.258 0 0 1-.198-.782 1.239 1.239 0 0 1 .578-1.095 2.82 2.82 0 0 1 1.545-.384c.32.001.638.035.951.102.299.07.591.166.871.29l-.364.782a5.898 5.898 0 0 0-.737-.259 2.91 2.91 0 0 0-.792-.11c-.261-.013-.52.041-.753.157a.473.473 0 0 0-.253.422.49.49 0 0 0 .119.337c.12.122.262.22.419.29.198.093.468.21.793.344.304.108.598.242.879.399.224.115.415.285.555.493.169.246.255.539.245.837ZM206.459 7.518s-2.257 2.409-.38 3.708c1.878 1.298 13.286 7.368 13.286 7.368.473.35.844.817 1.075 1.355.231.537.314 1.125.24 1.704-.143 2.183.047 10.897.047 10.897-.086.478-.283.93-.576 1.32-.292.389-.673.706-1.111.925-1.458.65-12.739 7.385-12.739 7.385a2.149 2.149 0 0 0-.241 1.468c.097.502.371.955.772 1.278 1.457 1.064 12.533 6.907 12.533 6.907s1.505 1.205 1.315 2.636c-.086 1.81-.07 3.622.047 5.43l-14.6-8.347s-2.52-1.205-2.52-3.614c0-2.41.095-10.71.095-10.71.128-.437.355-.84.664-1.177a3.039 3.039 0 0 1 1.119-.77c1.584-.783 13.753-7.823 13.753-7.823l-.23-2.691-13.745-7.557a2.628 2.628 0 0 1-.849-1.002c-.193-.4-.279-.84-.252-1.282a44.974 44.974 0 0 1 .238-4.757s-.286-1.525 2.059-2.651Z"/><path fill="#83CBAA" d="m235.296 10.842-13.547 7.479c-1.045.852-2.028.696-3.097 0l-13.214-7.174c-1.07-.891-1.165-2.237 0-3.058L218.462.61c1.093-.696 1.774-.923 3.097 0l13.737 7.213c1.181.782.832 2.174 0 3.02Z"/><path fill="#B12F53" d="m219.373 27.59-13.515 7.48c-1.046.852-2.036.696-3.098 0l-13.222-7.174a2.006 2.006 0 0 1-.719-1.53 1.984 1.984 0 0 1 .719-1.529l13.024-7.478c1.093-.697 1.775-.923 3.098 0l13.713 7.173c1.204.822.871 2.214 0 3.059Z"/><path fill="#F47E42" d="m236.026 44.402-13.523 7.478c-1.046.853-2.029.689-3.098 0l-13.214-7.18a1.987 1.987 0 0 1-.534-2.373c.125-.265.307-.5.534-.687l13.024-7.47c1.093-.697 1.774-.923 3.097 0l13.714 7.173c1.204.822.855 2.214 0 3.059Z"/></g><defs><clipPath id="a"><path fill="#fff" d="M.802 0h236v59.898h-236z"/></clipPath></defs></svg>