<svg xmlns="http://www.w3.org/2000/svg" width="21" height="20" fill="none"><mask id="a" width="21" height="20" x="0" y="0" maskUnits="userSpaceOnUse" style="mask-type:luminance"><path fill="#fff" d="M10.737 20c5.523 0 10-4.477 10-10s-4.477-10-10-10-10 4.477-10 10 4.477 10 10 10Z"/></mask><g mask="url(#a)"><path fill="#EEE" d="m.737 0 .313.86-.313.898v.898l1.25 2.11-1.25 2.109v1.25L1.987 10l-1.25 1.875v1.25l1.25 2.11-1.25 2.109V20l.86-.313.898.313h.899l2.109-1.25L7.613 20h1.25l1.874-1.25L12.612 20h1.25l2.11-1.25 2.11 1.25h2.655l-.312-.86.312-.898v-.898l-1.25-2.11 1.25-2.109v-1.25L19.487 10l1.25-1.875v-1.25l-1.25-2.11 1.25-2.109V0l-.86.313L18.98 0h-.899l-2.11 1.25L13.863 0h-1.25l-1.875 1.25L8.862 0h-1.25l-2.11 1.25L3.395 0H.737Z"/><path fill="#0052B4" d="M13.862 0v4.219L18.082 0h-4.22Zm6.875 2.656L16.52 6.875h4.218V2.656Zm-20 4.219h4.22L.736 2.656v4.219ZM3.394 0l4.218 4.219V0H3.394Zm4.218 20v-4.219L3.394 20h4.218ZM.737 17.344l4.22-4.219H.736v4.219Zm20-4.219H16.52l4.218 4.219v-4.219ZM18.081 20l-4.219-4.219V20h4.22Z"/><path fill="#D80027" d="M.737 0v1.758l5.117 5.117h1.758L.737 0Zm8.125 0v8.125H.737v3.75h8.125V20h3.75v-8.125h8.125v-3.75h-8.125V0h-3.75ZM18.98 0l-5.118 5.117v1.758L20.737 0H18.98ZM7.612 13.125.737 20h1.758l5.117-5.117v-1.758Zm6.25 0L20.737 20v-1.758l-5.117-5.117h-1.758Z"/></g></svg>