<svg width="20" height="20" viewBox="0 0 20 20" fill="none" xmlns="http://www.w3.org/2000/svg">
<path d="M10 19.375C15.1777 19.375 19.375 15.1777 19.375 10C19.375 4.82233 15.1777 0.625 10 0.625C4.82233 0.625 0.625 4.82233 0.625 10C0.625 15.1777 4.82233 19.375 10 19.375Z" fill="#699635"/>
<path d="M9.90576 8.34375C9.87451 8.0625 10.0308 7.78125 10.312 7.84375C10.5308 7.875 10.7808 8.09375 10.6558 8.3125C10.4683 8.65625 9.96826 8.65625 9.65576 8.84375C9.68701 9.03125 10.5933 8.8125 10.7495 8.8125C10.9058 8.8125 11.062 8.875 10.9683 9.0625C10.8745 9.25 10.562 9.25 10.3745 9.28125C10.187 9.3125 9.87451 9.3125 9.78076 9.46875C9.59326 9.71875 9.96826 9.75 10.0933 9.8125C10.4058 9.96875 9.90576 10.125 9.78076 10.0937C9.31201 10 9.21826 9.75 8.93701 9.4375C8.65576 9.8125 7.78076 10.6562 7.59326 9.78125C7.28076 9.90625 6.96826 10.0625 6.62451 10.0937C6.78076 9.875 7.09326 9.78125 7.34326 9.65625C7.65576 9.5 7.65576 9.21875 7.84326 8.96875C7.90576 9.0625 7.84326 9.1875 7.87451 9.3125C8.12451 9.1875 8.43701 8.9375 8.31201 8.625C8.31201 8.59375 7.93701 7.84375 8.24951 7.96875C8.53076 8.09375 8.43701 8.375 8.49951 8.59375C8.59326 9 8.40576 9.21875 8.09326 9.46875C7.96826 9.5625 7.62451 9.9375 8.03076 9.9375C8.31201 9.9375 8.56201 9.625 8.71826 9.4375C8.90576 9.1875 8.84326 8.9375 8.71826 8.65625C8.62451 8.4375 8.40576 7.96875 8.68701 7.8125C8.90576 8.15625 8.99951 8.5625 9.09326 8.96875C9.15576 9.3125 9.21826 9.65625 9.59326 9.75C9.56201 9.5 9.71826 9.3125 9.93701 9.21875C9.78076 9.09375 8.90576 9.25 9.24951 8.78125C9.28076 8.5625 9.90576 8.46875 9.90576 8.34375Z" fill="white"/>
<path d="M5.12495 9.50031C5.2812 9.93781 5.81245 9.78156 6.12495 9.65656C6.62495 9.40656 6.62495 9.03156 6.62495 8.53156C6.43745 8.62531 6.4687 8.96906 6.4062 9.12531C6.2812 9.37531 5.87495 9.59406 5.5937 9.56281C5.18745 9.50031 4.99995 8.81281 5.31245 8.56281C5.37495 8.78156 5.2187 9.25031 5.5937 9.28156C5.87495 9.31281 6.43745 8.96906 6.3437 8.65656C5.9687 8.78156 5.74995 8.65656 5.87495 8.25031C5.9687 7.87531 6.3437 8.15656 6.49995 8.34406C7.0937 8.00031 6.0312 6.68781 6.6562 6.34406C6.7812 6.56281 6.9687 6.84406 6.81245 7.06281C6.62495 7.31281 6.81245 7.84406 6.8437 8.12531C7.1562 7.84406 6.9062 8.34406 7.1562 8.37531C7.31245 8.40656 7.37495 8.00031 7.4687 8.00031C7.49995 8.09406 7.49995 8.37531 7.6562 8.34406C7.8437 8.28156 7.62495 8.03156 7.81245 7.96906C7.87495 8.12531 7.8437 8.59406 7.62495 8.56281C7.43745 8.53156 7.4687 8.40656 7.24995 8.53156C7.06245 8.62531 6.99995 8.53156 6.87495 8.43781C6.8437 8.81281 6.9687 9.21906 6.74995 9.56281C6.56245 9.84406 6.18745 10.0003 5.87495 10.0628C5.06245 10.2191 4.8437 9.40656 5.12495 8.75031C5.18745 8.93781 5.06245 9.28156 5.12495 9.50031ZM12.7499 9.65656C12.9062 10.0628 13.2187 9.21906 13.3124 9.09406C13.5624 8.71906 13.9374 9.68781 14.0937 9.06281C14.1874 8.65656 14.0624 8.25031 14.0312 7.84406C13.9999 7.56281 13.9062 7.31281 13.7187 7.09406C13.5312 6.84406 13.3437 6.62531 13.4374 6.31281C13.7499 6.43781 13.7499 6.68781 13.9062 6.93781C13.9374 6.75031 13.8124 6.50031 13.9374 6.34406C14.0937 6.12531 14.2187 6.71906 14.2187 6.78156C14.2499 6.93781 14.0937 7.00031 14.1874 7.25031C14.2499 7.43781 14.3749 7.62531 14.4999 7.78156C14.4687 7.59406 14.1874 6.31281 14.4999 6.31281C14.5937 6.31281 14.6874 6.68781 14.6874 6.75031C14.7499 6.93781 14.6249 7.09406 14.6249 7.31281C14.5937 7.68781 14.6562 8.12531 14.9062 8.40656C15.0312 8.56281 15.4999 9.12531 15.2499 9.31281C15.0624 9.09406 14.9374 8.84406 14.7812 8.62531C14.7812 8.87531 14.8437 9.15656 14.7187 9.34406C14.5937 9.28156 14.6562 8.87531 14.6562 8.78156C14.6562 8.43781 14.4374 8.15656 14.2499 7.87531C14.1874 8.34406 14.5624 9.21906 14.1249 9.56281C13.8437 9.81281 13.4687 9.25031 13.3749 9.46906C13.2812 9.62531 13.0624 10.1878 12.8124 10.1253C12.4999 10.0628 12.2812 9.18781 12.6249 9.09406C12.6562 9.25031 12.6562 9.46906 12.7499 9.65656Z" fill="white"/>
<path d="M6.06253 7.53156C6.28128 7.56281 6.06253 6.81281 6.06253 6.68781C6.09378 6.56281 6.18753 6.50031 6.25003 6.62531C6.34378 6.81281 6.34378 7.03156 6.37503 7.21906C6.37503 7.37531 6.40628 7.56281 6.28128 7.68781C6.09378 7.87531 5.84378 7.78156 5.75003 7.53156C5.31253 7.90656 5.87503 8.56281 5.50003 8.93781C5.43753 8.59406 5.50003 8.21906 5.37503 7.90656C5.31253 7.75031 5.03128 7.81281 5.00003 7.53156C5.00003 7.40656 5.09378 7.06281 4.96878 6.96906C4.90628 7.09406 4.84378 8.06281 4.53128 7.78156C4.28128 7.59406 4.34378 6.96906 4.43753 6.71906C4.62503 6.81281 4.40628 7.50031 4.65628 7.53156C4.78128 7.56281 4.81253 7.03156 4.84378 6.93781C4.93753 6.78156 5.25003 6.34406 5.18753 6.78156C5.15628 6.96906 5.00003 7.56281 5.37503 7.53156C5.34378 7.21906 5.31253 6.90656 5.25003 6.59406C5.21878 6.43781 5.31253 6.12531 5.43753 6.40656C5.53128 6.59406 5.46878 6.68781 5.43753 6.87531C5.40628 7.09406 5.50003 7.31281 5.53128 7.50031C5.71878 7.34406 5.46878 6.75031 5.62503 6.50031C6.00003 6.71906 5.59378 7.46906 6.06253 7.53156ZM10.0938 7.59406C9.93753 7.81281 9.65628 7.62531 9.53128 7.46906C9.37503 7.65656 9.06253 7.96906 8.81253 7.71906C8.62503 7.53156 8.84378 7.18781 8.68753 7.03156C8.59378 7.18781 8.43753 7.93781 8.15628 7.59406C8.00003 7.40656 7.78128 6.75031 8.12503 6.59406C8.09378 6.84406 8.03128 7.12531 8.18753 7.34406C8.34378 7.56281 8.50003 7.00031 8.56253 6.87531C8.65628 6.65656 8.96878 6.28156 8.90628 6.75031C8.87503 6.93781 8.81253 7.37531 9.00003 7.50031C9.12503 7.59406 9.28128 7.43781 9.34378 7.34406C9.46878 7.18781 9.40628 6.93781 9.37503 6.75031C9.34378 6.59406 9.28128 6.40656 9.37503 6.25031C9.50003 6.06281 9.59378 6.50031 9.59378 6.59406C9.59378 6.68781 9.71878 7.65656 9.93753 7.34406C10.1563 7.06281 9.56253 6.43781 9.96878 6.28156C10.125 6.21906 10.4063 6.84406 10.0938 6.65656C10.1875 6.93781 10.3125 7.34406 10.0938 7.59406ZM11.2813 7.96906C11.3125 8.37531 11.6563 9.50031 11.1875 9.75031C11.125 9.62531 11.1875 9.43781 11.2188 9.28156C11.25 9.00031 11.1875 8.71906 11.1563 8.46906C11.0938 7.87531 11.0313 7.43781 10.625 6.96906C10.5313 6.84406 10.375 6.75031 10.3438 6.56281C10.3438 6.50031 10.3125 6.21906 10.4375 6.28156C10.5313 6.31281 11.0625 6.78156 10.7813 6.78156C10.8125 6.84406 10.9375 7.09406 11 7.09406C11 6.93781 10.8125 6.46906 11 6.37531C11.1563 6.28156 11.3438 6.87531 11.2813 7.00031C11.2188 7.15656 11.2188 7.25031 11.2813 7.46906C11.3438 7.71906 11.5 7.93781 11.625 8.15656C11.8125 8.46906 12.1875 8.90656 12.0938 9.31281C11.9063 9.21906 11.7813 8.78156 11.6875 8.59406C11.625 8.43781 11.5625 8.28156 11.4688 8.15656C11.4375 8.12531 11.25 7.87531 11.2813 8.03156V7.96906ZM15.625 8.56281C15.6563 9.21906 15.4375 10.0628 14.625 10.0628C14.625 9.87531 15.0313 9.68781 15.1563 9.59406C15.4688 9.34406 15.4375 8.87531 15.4063 8.53156C15.375 8.06281 15.3438 7.59406 15.25 7.12531C15.2188 6.84406 15.0625 6.43781 15.3125 6.25031C15.4688 6.37531 15.6875 6.71906 15.5938 6.84406C15.4375 7.03156 15.5938 8.43781 15.625 8.56281Z" fill="white"/>
<path d="M11.625 9.96934C12.4375 9.50059 12.1875 8.50059 12.125 7.71934C12.0937 7.50059 12.0937 7.28184 12.0625 7.06309C12.0625 6.90684 11.9375 6.68809 12 6.53184C12.1563 6.12559 12.2813 6.50059 12.3125 6.75059C12.3438 6.90684 12.2188 6.93809 12.25 7.06309C12.2813 7.31309 12.2813 7.56309 12.3125 7.81309C12.3438 8.21934 12.4062 8.62559 12.375 9.00059C12.3125 9.59434 12 10.2506 11.2812 10.1256C11.3125 10.0631 11.5313 10.0318 11.625 9.96934ZM12.9375 8.40684C12.9688 8.71934 13.0938 9.28184 12.9375 9.56309C12.8125 9.75059 12.8125 9.43809 12.7813 9.40684C12.75 9.15684 12.75 8.90684 12.75 8.62559C12.6875 7.93809 12.4688 7.25059 12.4688 6.59434C12.4688 5.75059 13.1875 7.06309 12.7813 7.00059C12.8125 7.46934 12.875 7.93809 12.9375 8.40684ZM7.84375 6.81309C7.90625 6.96934 7.125 7.37559 7.03125 7.37559C7 7.21934 7.375 7.00059 7.46875 6.93809C7.5625 6.84434 7.625 6.84434 7.59375 6.71934C7.53125 6.59434 7.5625 6.37559 7.71875 6.31309C8.03125 6.21934 7.8125 6.68809 7.84375 6.81309ZM4.625 9.59434C4.625 9.84434 4.71875 9.71934 4.84375 9.65684C4.90625 9.78184 4.75 10.1256 4.59375 9.96934C4.375 9.75059 4.5625 9.25059 4.65625 9.03184C4.71875 9.18809 4.59375 9.43809 4.625 9.59434ZM13.4375 7.65684C13.4688 7.53184 13.375 7.40684 13.4687 7.28184C13.5937 7.12559 13.7188 7.31309 13.6563 7.37559C13.5938 7.43809 13.5 7.31309 13.5 7.50059C13.5 7.59434 13.5625 7.78184 13.4687 7.87559C13.4062 7.84434 13.125 7.43809 13.1562 7.37559C13.2812 7.25059 13.4063 7.62559 13.4375 7.65684ZM5.28125 8.18809C5.21875 8.31309 4.5 8.71934 4.46875 8.62559C4.46875 8.53184 5.375 8.00059 5.28125 8.18809ZM10.5938 9.78184C10.5 10.0631 10.9063 9.81309 11 9.78184C10.875 10.0006 10.4375 10.1881 10.5 9.78184C10.4687 9.78184 10.4063 9.81309 10.375 9.81309C10.3125 9.75059 10.6875 9.50059 10.5938 9.78184ZM14 9.68809C14.0938 9.68809 14.25 9.96934 14.1562 10.0318C14.0937 10.0943 13.8125 10.1256 13.9688 10.0006C14.1563 9.81309 14 9.68809 14 9.68809ZM9.59375 8.09434C9.625 8.03184 9.625 7.93809 9.65625 7.87559C9.96875 8.12559 9.15625 8.53184 9.3125 7.93809C9.375 8.00059 9.375 8.09434 9.4375 8.12559C9.4375 8.06309 9.46875 7.96934 9.46875 7.90684C9.53125 7.96934 9.53125 8.06309 9.59375 8.09434ZM13.25 8.50059C13.1563 8.37559 13.7188 8.03184 13.8125 7.96934C13.875 8.06309 13.4375 8.40684 13.25 8.50059ZM15 7.25059C14.9375 7.06309 14.75 6.68809 14.9375 6.53184C15.0625 6.62559 15.125 7.09434 15 7.25059ZM11.5937 6.62559C11.5625 6.56309 11.4688 6.50059 11.4688 6.40684C11.5 6.28184 11.5625 6.31309 11.625 6.37559C11.7188 6.50059 11.7813 6.84434 11.625 6.93809C11.625 6.84434 11.6562 6.71934 11.5937 6.62559ZM7.78125 7.46934C7.78125 7.65684 7.46875 7.84434 7.4375 7.59434C7.40625 7.50059 7.5625 7.15684 7.625 7.25059C7.5 7.53184 7.5 7.62559 7.78125 7.46934Z" fill="white"/>
<path d="M11.688 7.12493C11.813 7.43743 11.7505 7.15618 11.8755 7.09368C12.0942 7.49993 11.4067 7.40618 11.563 7.15618C11.5942 7.18743 11.6255 7.24993 11.6255 7.28118C11.6567 7.24993 11.6567 7.18743 11.688 7.12493ZM13.688 8.56243C13.5317 8.43743 13.7192 8.28118 13.813 8.43743C13.8755 8.53118 13.8755 8.78118 13.7505 8.84368C13.7505 8.74993 13.7817 8.62493 13.688 8.56243ZM7.28175 9.24993C7.28175 9.18743 7.2505 8.71868 7.34425 8.78118C7.46925 8.84368 7.438 9.18743 7.28175 9.24993ZM5.96925 6.31243C6.0005 6.40618 6.03175 6.53118 6.09425 6.37493C6.34425 6.65618 5.46925 6.56243 5.78175 6.28118C5.78175 6.31243 5.84425 6.49993 5.96925 6.31243ZM9.15675 6.99993C9.15675 6.87493 8.96925 6.34368 9.1255 6.34368C9.313 6.37493 9.28175 6.84368 9.15675 6.99993ZM4.78175 6.71868C4.688 6.68743 4.84425 6.53118 4.78175 6.40618C4.71925 6.43743 4.65675 6.34368 4.71925 6.28118C4.96925 6.09368 4.8755 6.71868 4.78175 6.71868ZM12.8755 13.0624L12.7505 12.6874L12.6255 13.0624H5.78175C5.78175 13.0624 5.84425 13.6249 6.53175 13.6249H12.5942V14.0624H14.2505V13.0624H12.8755ZM13.938 13.8124H12.813V13.4999H13.938V13.8124Z" fill="white"/>
</svg>
