<svg width="1591" height="726" viewBox="0 0 1591 726" fill="none" xmlns="http://www.w3.org/2000/svg"><g filter="url(#a)"><path d="M177.536 139.404c50.685-9.795 100.484 3.325 138.703 32.123 15.734-8.717 33.09-15.14 51.707-18.738 31.496-6.087 62.649-3.323 90.896 6.551 23.525-47.027 67.874-82.984 123.492-93.733 35.029-6.77 69.636-2.593 100.289 10.139 21.999-18.376 48.825-31.601 78.959-37.425 77.891-15.054 153.694 24.006 188.584 90.928 19.283-13.267 41.555-22.864 66.004-27.589 51.66-9.983 102.4 3.837 140.89 33.798 25.02-30.572 60.46-52.904 102.28-60.985 94.99-18.358 186.87 43.765 205.23 138.755 3.49 18.038 4.07 35.964 2.08 53.296 42.01 24.582 73.62 66.446 83.58 117.99 18.36 94.99-43.76 186.878-138.75 205.236-21.67 4.187-43.17 4.185-63.68.563-23.4 47.484-67.97 83.846-123.95 94.666-68.49 13.236-135.36-15.365-174.22-67.953-23.14 21.39-52.341 36.802-85.557 43.221-81.025 15.659-159.791-27.239-192.593-99.144-35.144 4.461-69.471-1.918-99.376-16.694-24.369 43.247-66.863 75.914-119.42 86.071-50.067 9.676-99.27-3.008-137.301-31.077-23.923 24.073-55.079 41.464-90.913 48.39-94.99 18.358-186.876-43.765-205.234-138.755-3.253-16.831-3.977-33.564-2.441-49.808-39.222-24.945-68.497-65.351-78.014-114.59-18.358-94.99 43.765-186.878 138.755-205.236" fill="url(#b)" shape-rendering="crispEdges"/></g><defs><linearGradient id="b" x1="730.342" y1="32.568" x2="899.816" y2="746.27" gradientUnits="userSpaceOnUse"><stop stop-color="#fff" stop-opacity=".16"/><stop offset=".606" stop-color="#83CBAA" stop-opacity=".12"/><stop offset=".947" stop-color="#83CBAA" stop-opacity=".24"/></linearGradient><filter id="a" x=".566" y=".105" width="1589.88" height="725.089" filterUnits="userSpaceOnUse" color-interpolation-filters="sRGB"><feFlood flood-opacity="0" result="BackgroundImageFix"/><feColorMatrix in="SourceAlpha" values="0 0 0 0 0 0 0 0 0 0 0 0 0 0 0 0 0 0 127 0" result="hardAlpha"/><feOffset dx="1" dy="1"/><feGaussianBlur stdDeviation="18"/><feComposite in2="hardAlpha" operator="out"/><feColorMatrix values="0 0 0 0 0.513726 0 0 0 0 0.796078 0 0 0 0 0.666667 0 0 0 0.08 0"/><feBlend in2="BackgroundImageFix" result="effect1_dropShadow_2894_10304"/><feBlend in="SourceGraphic" in2="effect1_dropShadow_2894_10304" result="shape"/></filter></defs></svg>