<svg xmlns="http://www.w3.org/2000/svg" width="1518" height="654" fill="none"><path fill="#E2F3EB" fill-rule="evenodd" d="M81.251 424.741c-39.221-24.945-68.495-65.352-78.01-114.592-18.359-94.99 43.764-186.877 138.754-205.235 50.685-9.795 100.486 3.323 138.706 32.121 15.733-8.716 33.087-15.138 51.704-18.736 31.496-6.087 62.65-3.326 90.897 6.547 23.525-47.026 67.874-82.98 123.491-93.73 35.029-6.77 69.636-2.595 100.29 10.137 21.998-18.375 48.825-31.598 78.959-37.422 77.89-15.053 153.694 24.006 188.583 90.929 19.283-13.267 41.555-22.864 66.005-27.59 51.66-9.982 102.39 3.835 140.89 33.795 25.02-30.571 60.46-52.901 102.28-60.983 94.99-18.357 186.87 43.765 205.23 138.755 3.49 18.038 4.07 35.964 2.08 53.295 42.01 24.582 73.62 66.448 83.58 117.992 18.36 94.991-43.76 186.877-138.75 205.235-21.67 4.187-43.17 4.188-63.68.567-23.4 47.482-67.97 83.841-123.95 94.661-68.49 13.235-135.36-15.361-174.22-67.948-23.145 21.389-52.342 36.799-85.557 43.218-81.026 15.66-159.793-27.238-192.595-99.142-35.143 4.46-69.47-1.917-99.375-16.693-24.369 43.246-66.864 75.911-119.419 86.068-50.067 9.676-99.271-3.006-137.301-31.073-23.923 24.072-55.08 41.461-90.914 48.386-94.99 18.358-186.877-43.764-205.235-138.754-3.252-16.831-3.979-33.564-2.443-49.808Z" clip-rule="evenodd"/></svg>