<svg xmlns="http://www.w3.org/2000/svg" version="1.1" xmlns:xlink="http://www.w3.org/1999/xlink" width="181" height="226"><svg width="181" height="226" viewBox="0 0 181 226" fill="none" xmlns="http://www.w3.org/2000/svg">
<path d="M66.6726 28.9996C66.6726 28.9996 58.203 38.0379 65.2461 42.9092C72.2893 47.7805 115.083 70.5523 115.083 70.5523C116.86 71.8634 118.252 73.6161 119.119 75.6317C119.985 77.6473 120.295 79.8538 120.017 82.0263C119.482 90.2136 120.195 122.904 120.195 122.904C119.873 124.696 119.134 126.39 118.035 127.852C116.937 129.314 115.509 130.503 113.865 131.326C108.397 133.762 66.0783 159.028 66.0783 159.028C65.1312 160.702 64.8117 162.652 65.1759 164.536C65.54 166.419 66.5645 168.116 68.0694 169.328C73.5375 173.319 115.083 195.24 115.083 195.24C115.083 195.24 120.73 199.759 120.017 205.129C119.696 211.916 119.755 218.715 120.195 225.495L65.4244 194.183C65.4244 194.183 55.9741 189.664 55.9741 180.626C55.9741 171.588 56.3307 140.452 56.3307 140.452C56.8104 138.813 57.6619 137.303 58.8204 136.037C59.9789 134.771 61.4142 133.782 63.0173 133.146C68.9609 130.211 114.608 103.8 114.608 103.8L113.746 93.7057L62.1852 65.3582C60.8182 64.3922 59.722 63.0992 58.9995 61.6004C58.277 60.1017 57.9518 58.4463 58.0544 56.7894C58.037 50.8309 58.3346 44.8755 58.9459 38.9476C58.9459 38.9476 57.8761 33.2253 66.6726 28.9996Z" fill="#2B3990" data-darkreader-inline-fill="" style="--darkreader-inline-fill: var(--darkreader-background-2b3990, #222e73);"></path>
<path d="M174.848 41.4713L124.03 69.5253C120.107 72.7239 116.422 72.137 112.41 69.5253L62.8404 42.6157C58.8285 39.2704 58.4718 34.223 62.8404 31.1418L111.697 3.08782C115.798 0.476097 118.354 -0.374913 123.317 3.08782L174.848 30.144C179.276 33.0786 177.968 38.302 174.848 41.4713Z" fill="#83CBAA" data-darkreader-inline-fill="" style="--darkreader-inline-fill: var(--darkreader-background-83cbaa, #2e6e58);"></path>
<path d="M115.114 104.299L64.4154 132.353C60.4926 135.552 56.7779 134.965 52.7956 132.353L3.19619 105.444C2.35142 104.738 1.67255 103.86 1.2069 102.869C0.741249 101.878 0.5 100.799 0.5 99.7067C0.5 98.6144 0.741249 97.5352 1.2069 96.5444C1.67255 95.5536 2.35142 94.6749 3.19619 93.9697L52.0527 65.9158C56.1538 63.304 58.7095 62.453 63.6725 65.9158L115.114 92.8253C119.632 95.9065 118.383 101.13 115.114 104.299Z" fill="#B12F53" data-darkreader-inline-fill="" style="--darkreader-inline-fill: var(--darkreader-background-b12f53, #8e2642);"></path>
<path d="M177.582 167.362L126.853 195.416C122.931 198.615 119.245 197.998 115.234 195.416L65.6638 168.477C64.8145 167.775 64.1313 166.897 63.6627 165.906C63.194 164.915 62.9512 163.834 62.9512 162.74C62.9512 161.646 63.194 160.566 63.6627 159.574C64.1313 158.583 64.8145 157.705 65.6638 157.003L114.52 128.978C118.621 126.367 121.177 125.516 126.14 128.978L177.582 155.888C182.099 158.969 180.792 164.193 177.582 167.362Z" fill="#F47E42" data-darkreader-inline-fill="" style="--darkreader-inline-fill: var(--darkreader-background-f47e42, #a23d09);"></path>
</svg><style>@media (prefers-color-scheme: light) { :root { filter: none; } }
@media (prefers-color-scheme: dark) { :root { filter: none; } }
</style></svg>