<svg xmlns="http://www.w3.org/2000/svg" version="1.1" xmlns:xlink="http://www.w3.org/1999/xlink" width="225" height="225"><svg width="225" height="225" viewBox="0 0 225 225" fill="none" xmlns="http://www.w3.org/2000/svg">
<path d="M88.1726 28.2007C88.1726 28.2007 79.703 37.2391 86.7461 42.1104C93.7893 46.9817 136.583 69.7535 136.583 69.7535C138.36 71.0646 139.752 72.8172 140.619 74.8329C141.485 76.8485 141.795 79.055 141.517 81.2275C140.982 89.4148 141.695 122.105 141.695 122.105C141.373 123.898 140.634 125.592 139.535 127.053C138.437 128.515 137.009 129.704 135.365 130.527C129.897 132.963 87.5783 158.229 87.5783 158.229C86.6312 159.903 86.3117 161.853 86.6759 163.737C87.04 165.621 88.0645 167.317 89.5694 168.529C95.0375 172.52 136.583 194.441 136.583 194.441C136.583 194.441 142.23 198.96 141.517 204.33C141.196 211.117 141.255 217.916 141.695 224.696L86.9244 193.385C86.9244 193.385 77.4741 188.866 77.4741 179.827C77.4741 170.789 77.8307 139.654 77.8307 139.654C78.3104 138.014 79.1619 136.505 80.3204 135.239C81.4789 133.972 82.9142 132.984 84.5173 132.347C90.4609 129.412 136.108 103.002 136.108 103.002L135.246 92.9068L83.6852 64.5594C82.3182 63.5934 81.222 62.3004 80.4995 60.8016C79.777 59.3028 79.4518 57.6474 79.5544 55.9906C79.537 50.0321 79.8346 44.0767 80.4459 38.1488C80.4459 38.1488 79.3761 32.4264 88.1726 28.2007Z" fill="#2B3990" data-darkreader-inline-fill="" style="--darkreader-inline-fill: var(--darkreader-background-2b3990, #222e73);"></path>
<path d="M196.348 40.6725L145.53 68.7264C141.607 71.925 137.922 71.3381 133.91 68.7264L84.3404 41.8169C80.3285 38.4716 79.9718 33.4242 84.3404 30.343L133.197 2.28899C137.298 -0.322731 139.854 -1.17374 144.817 2.28899L196.348 29.3452C200.776 32.2797 199.468 37.5032 196.348 40.6725Z" fill="#83CBAA" data-darkreader-inline-fill="" style="--darkreader-inline-fill: var(--darkreader-background-83cbaa, #2e6e58);"></path>
<path d="M136.614 103.5L85.9154 131.554C81.9926 134.753 78.2779 134.166 74.2956 131.554L24.6962 104.645C23.8514 103.94 23.1726 103.061 22.7069 102.07C22.2412 101.079 22 100 22 98.9079C22 97.8156 22.2412 96.7364 22.7069 95.7456C23.1726 94.7548 23.8514 93.8761 24.6962 93.1709L73.5527 65.117C77.6538 62.5052 80.2095 61.6542 85.1725 65.117L136.614 92.0265C141.132 95.1077 139.883 100.331 136.614 103.5Z" fill="#B12F53" data-darkreader-inline-fill="" style="--darkreader-inline-fill: var(--darkreader-background-b12f53, #8e2642);"></path>
<path d="M199.082 166.563L148.353 194.617C144.431 197.816 140.745 197.199 136.734 194.617L87.1638 167.678C86.3145 166.976 85.6313 166.098 85.1627 165.107C84.694 164.116 84.4512 163.035 84.4512 161.941C84.4512 160.847 84.694 159.767 85.1627 158.776C85.6313 157.784 86.3145 156.907 87.1638 156.204L136.02 128.18C140.121 125.568 142.677 124.717 147.64 128.18L199.082 155.089C203.599 158.17 202.292 163.394 199.082 166.563Z" fill="#F47E42" data-darkreader-inline-fill="" style="--darkreader-inline-fill: var(--darkreader-background-f47e42, #a23d09);"></path>
</svg><style>@media (prefers-color-scheme: light) { :root { filter: none; } }
@media (prefers-color-scheme: dark) { :root { filter: none; } }
</style></svg>