<svg xmlns="http://www.w3.org/2000/svg" width="284" height="93" fill="none"><path fill="#D9534F" d="M7.427 45.797a109.62 109.62 0 0 1 23.218-16.72c5.334-3.003 11.385-6.095 17.93-9.188a167.486 167.486 0 0 1 21.582-8.561 95.143 95.143 0 0 1 12.147-2.959 72.209 72.209 0 0 1 12.909-1.232 56.21 56.21 0 0 1 13.2 1.344 49.47 49.47 0 0 1 12.618 4.483l.65.358c-.18.18-.404.337-.606.516a47.072 47.072 0 0 0-14.724 25.907 38.112 38.112 0 0 0 .291 15.352 31.698 31.698 0 0 0 7.329 14.21 26.888 26.888 0 0 0 6.455 5.557 21.065 21.065 0 0 0 8.964 3.093 22.099 22.099 0 0 0 17.01-6.029 24.097 24.097 0 0 0 7.307-14.68 39.272 39.272 0 0 0-1.166-15.284 49.274 49.274 0 0 0-6.141-13.828 55.732 55.732 0 0 0-12.774-13.872 32.253 32.253 0 0 1 3.855-1.883 56.99 56.99 0 0 1 24.652-4.325 78.057 78.057 0 0 1 23.062 4.482 84.537 84.537 0 0 1 18.422 9.121 97.305 97.305 0 0 1 13.447 11.206 125.109 125.109 0 0 1 17.346 21.157 121.29 121.29 0 0 1 8.965 16.046c2.039 4.483 3.362 7.8 4.325 10.4.874 2.24 1.39 3.742 1.838 4.885l-1.501-1.053c-4.281-3.004-8.203-5.648-11.565-7.8-6.723-4.28-11.206-6.723-11.766-5.961-.56.762 2.802 4.213 8.763 9.368 2.981 2.6 6.589 5.58 10.668 8.83l1.546 1.233c.66.537 1.365 1.017 2.107 1.434.481.26.983.477 1.502.65.658.221 1.345.35 2.039.38a6.722 6.722 0 0 0 4.034-1.12 14.523 14.523 0 0 0 3.631-4.034l2.487-3.429c13.447-19.274 23.151-35.656 21.583-36.575-1.569-.92-13.761 13.94-27.23 33.214l-1.748 2.555a29.866 29.866 0 0 0-.74-3.878 77.613 77.613 0 0 0-3.586-11.205 105.297 105.297 0 0 0-8.718-17.28 123.227 123.227 0 0 0-17.929-22.703 102.363 102.363 0 0 0-14.635-12.214 91.048 91.048 0 0 0-20.327-10.13A85.855 85.855 0 0 0 162.447.682a65.35 65.35 0 0 0-28.485 5.155 41.72 41.72 0 0 0-7.396 4.034c-.874-.493-1.748-.986-2.644-1.412a56.034 56.034 0 0 0-14.209-4.84A62.752 62.752 0 0 0 95.19 2.43a76.782 76.782 0 0 0-13.828 1.614 98.765 98.765 0 0 0-12.617 3.34 161.36 161.36 0 0 0-21.874 9.3c-6.589 3.332-12.565 6.626-17.93 9.884A99.08 99.08 0 0 0 6.24 44.788a50.515 50.515 0 0 0-4.729 6.14C.591 52.43.166 53.17.278 53.306c.112.134 2.42-2.847 7.194-7.508h-.045ZM126.723 19.26c.56-.515 1.166-.986 1.771-1.456a49.823 49.823 0 0 1 12.304 13.447 43.892 43.892 0 0 1 5.221 12.281 33.34 33.34 0 0 1 .807 13.021 17.925 17.925 0 0 1-5.558 10.802 14.591 14.591 0 0 1-11.206 3.99 16.697 16.697 0 0 1-10.286-6.23 25.15 25.15 0 0 1-5.671-11.34 31.721 31.721 0 0 1 0-12.663 39.132 39.132 0 0 1 4.483-11.946 38.105 38.105 0 0 1 8.09-9.906"/></svg>