<svg xmlns="http://www.w3.org/2000/svg" width="36" height="36" fill="none">
  <path fill="#fff" d="M12.541 1.184a17.798 17.798 0 0 0 1.218 34.003c2.98.77 6.104.803 9.101.099a16.068 16.068 0 0 0 7.285-3.786 16.154 16.154 0 0 0 4.5-7.386 20.898 20.898 0 0 0 .452-9.444h-16.74v6.944h9.695a8.356 8.356 0 0 1-3.56 5.49 10.18 10.18 0 0 1-3.918 1.547 11.615 11.615 0 0 1-4.247 0 10.463 10.463 0 0 1-3.952-1.724 11.053 11.053 0 0 1-4.078-5.462 10.772 10.772 0 0 1 0-6.927 11.04 11.04 0 0 1 2.582-4.194 10.454 10.454 0 0 1 10.533-2.75 9.647 9.647 0 0 1 3.836 2.25c1.093-1.088 2.184-2.178 3.274-3.271.562-.588 1.175-1.148 1.73-1.75a17.212 17.212 0 0 0-5.727-3.532 18 18 0 0 0-11.984-.107Z"/>
  <path fill="#E33629" d="M12.541 1.184a18 18 0 0 1 11.984.104c2.123.795 4.068 2.001 5.724 3.55-.563.602-1.156 1.164-1.73 1.75a1787.09 1787.09 0 0 1-3.271 3.256 9.647 9.647 0 0 0-3.836-2.25 10.454 10.454 0 0 0-10.536 2.74 11.038 11.038 0 0 0-2.582 4.193l-5.83-4.514A17.868 17.868 0 0 1 12.54 1.184Z"/>
  <path fill="#F8BD00" d="M.917 14.485a17.72 17.72 0 0 1 1.547-4.472l5.83 4.525a10.772 10.772 0 0 0 0 6.927 1695.15 1695.15 0 0 0-5.83 4.523A17.811 17.811 0 0 1 .917 14.485Z"/>
  <path fill="#587DBD" d="M18.357 14.667h16.74a20.898 20.898 0 0 1-.453 9.444 16.156 16.156 0 0 1-4.5 7.386c-1.881-1.468-3.771-2.925-5.653-4.393a8.358 8.358 0 0 0 3.56-5.496h-9.694c-.003-2.312 0-4.626 0-6.941Z"/>
  <path fill="#319F43" d="M2.46 25.987c1.945-1.5 3.889-3.007 5.831-4.522a11.053 11.053 0 0 0 4.084 5.462 10.461 10.461 0 0 0 3.96 1.71c1.404.26 2.843.26 4.247 0A10.18 10.18 0 0 0 24.5 27.09c1.881 1.468 3.771 2.925 5.653 4.393a16.067 16.067 0 0 1-7.285 3.788c-2.996.705-6.12.671-9.1-.098a17.719 17.719 0 0 1-6.47-3.26 17.915 17.915 0 0 1-4.837-5.926Z"/>
</svg>
