<svg xmlns="http://www.w3.org/2000/svg" width="237" height="61" fill="none">
  <path fill="#fff" d="M1.95 7.107h19.56v3.997H10.29v8.376h9.594v3.832h-9.595v13.204H1.95V7.107ZM31.549 10.281c-.99.668-2.19.96-3.38.823a5.612 5.612 0 0 1-3.564-.784 2.899 2.899 0 0 1-.986-1.215 2.858 2.858 0 0 1-.204-1.543 2.866 2.866 0 0 1 .189-1.51c.198-.479.521-.896.938-1.209a5.29 5.29 0 0 1 3.38-.823 5.7 5.7 0 0 1 3.563.784c.438.302.781.719.991 1.203.21.485.28 1.018.2 1.54.068.513 0 1.034-.198 1.514-.197.48-.518.9-.93 1.22Zm-7.42 2.837 8.055-1.066v24.464h-8.087l.032-23.398ZM43.904 36.515h-8.086V13.21l8.086-1.191v2.429l.881-.745a8.527 8.527 0 0 1 2.016-1.112 5.622 5.622 0 0 1 1.984-.243c.356-.002.711.024 1.063.078.382.065.755.176 1.11.33l.413.164v7.655l-2.88-1.645a5.591 5.591 0 0 0-1.246-.517 9.128 9.128 0 0 0-1.317-.267 11.418 11.418 0 0 0-1.167-.102h-.73c-.08 0-.127 0-.127.04v18.43ZM53.165 30.75l.92.532c.725.357 1.47.674 2.23.948.628.22 1.294.423 2 .604a8.358 8.358 0 0 0 1.945.266c.386.002.77-.049 1.142-.149.353-.084.69-.222 1-.407.27-.158.506-.369.69-.62.17-.224.244-.505.207-.783a2.77 2.77 0 0 0-.063-.682 1.446 1.446 0 0 0-.35-.595 6.248 6.248 0 0 0-.88-.784c-.39-.282-.929-.658-1.588-1.128l-2.706-1.81a16.302 16.302 0 0 1-2.047-1.568 8.564 8.564 0 0 1-1.357-1.567 5.303 5.303 0 0 1-.746-1.661 7.585 7.585 0 0 1-.27-1.865 7.046 7.046 0 0 1 .603-2.946 6.571 6.571 0 0 1 1.667-2.265 7.334 7.334 0 0 1 2.57-1.418 10.435 10.435 0 0 1 3.294-.494h1.246c.42 0 .897.055 1.42.125.524.071 1.135.157 1.818.267.682.11 1.468.266 2.38.454l1.5.33v4.121l-.912-.376a41 41 0 0 0-2.15-.697 29.858 29.858 0 0 0-1.921-.47 8.161 8.161 0 0 0-1.818-.228 2.964 2.964 0 0 0-1.666.47c-.22.137-.4.33-.517.56-.117.228-.169.485-.15.741a4.835 4.835 0 0 0 0 .635c.035.192.123.371.254.517.19.211.406.398.643.556.294.204.722.486 1.278.839v.063l2.84 1.755a20.554 20.554 0 0 1 2.254 1.645 8.312 8.312 0 0 1 1.476 1.607c.363.534.631 1.125.794 1.747a8.379 8.379 0 0 1-.397 5.235 7.296 7.296 0 0 1-1.746 2.492 7.961 7.961 0 0 1-2.73 1.567c-1.114.382-2.287.57-3.467.556a21.1 21.1 0 0 1-3.627-.392 64.095 64.095 0 0 1-4.674-1.003l-.5-.125.111-4.6ZM82.281 30.396c.027.302.169.582.397.784.27.19.584.308.913.344.546.083 1.097.133 1.65.15.195.018.392.018.587 0 .167 0 .413-.048.746-.103l.794-.078v3.871c-.722.22-1.167.345-1.333.368l-1.714.455c-.58.14-1.072.25-1.46.329-.39.078-.739.149-1.04.188-.302.04-.603.078-.88.102-.279.023-.58.039-.913.039a5.27 5.27 0 0 1-2.32-.208 5.219 5.219 0 0 1-1.995-1.187c-.566-.539-1-1.197-1.272-1.926a5.08 5.08 0 0 1-.294-2.282V17.365h-2.38v-3.871l2.8-.987c.329-.124.63-.308.89-.541.246-.197.472-.418.674-.658l.27-.33 2.333-3.251h3.46v4.858h5.134v4.78h-5.134v11.613c-.008.474.022.948.087 1.418ZM97.668 29.761l1.047.533c1 .439 1.865.784 2.603 1.05.738.266 1.524.494 2.381.705a9.848 9.848 0 0 0 2.333.306c.447-.001.891-.07 1.317-.204a3.99 3.99 0 0 0 1.151-.58c.322-.24.592-.54.793-.885.208-.339.302-.734.27-1.128a4.036 4.036 0 0 0-.063-.784 1.558 1.558 0 0 0-.334-.682 4.664 4.664 0 0 0-.849-.783c-.396-.298-.936-.682-1.587-1.152l-3.547-2.43a22.359 22.359 0 0 1-2.381-1.896 9.91 9.91 0 0 1-1.587-1.873 7.217 7.217 0 0 1-.912-2.037 8.76 8.76 0 0 1-.294-2.35 9.3 9.3 0 0 1 .683-3.582 8.613 8.613 0 0 1 1.92-2.844 9.06 9.06 0 0 1 2.92-1.873 9.63 9.63 0 0 1 3.651-.682c1.334.036 2.663.196 3.967.478a97.85 97.85 0 0 1 5.151 1.176l.499.125v4.772l-.912-.407a46.87 46.87 0 0 0-2.381-.87 26.49 26.49 0 0 0-2.127-.596 8.694 8.694 0 0 0-2.063-.329 3.75 3.75 0 0 0-2.38.784c-.32.233-.575.542-.743.898a2.321 2.321 0 0 0-.218 1.14c-.003.284.026.568.088.846.064.25.186.484.357.681.236.274.502.52.793.737.448.356.914.688 1.397.995l4.126 2.758a18.043 18.043 0 0 1 2.214 1.708 9.14 9.14 0 0 1 1.516 1.771c.403.614.7 1.29.881 1.998a9.67 9.67 0 0 1 .27 2.39c0 1.27-.27 2.524-.794 3.683a9.204 9.204 0 0 1-2.127 2.986 9.345 9.345 0 0 1-3.134 1.935 10.77 10.77 0 0 1-3.968.706 23.213 23.213 0 0 1-3.65-.337 37.426 37.426 0 0 1-4.984-1.191l-1.38-.416.087-5.25ZM129.782 30.396c.027.302.169.582.397.784.273.19.589.308.921.345.546.082 1.098.132 1.65.148.193.02.387.02.58 0 .166 0 .42-.047.793-.101l.754-.079v3.871c-.73.22-1.174.345-1.341.368l-1.706.455c-.587.141-1.072.25-1.46.329-.389.078-.738.149-1.048.188-.309.04-.595.078-.873.102-.277.024-.587.04-.92.04a5.276 5.276 0 0 1-2.318-.212 5.229 5.229 0 0 1-1.994-1.187 5.103 5.103 0 0 1-1.569-4.205V17.365h-2.333v-3.871l2.794-.987a2.85 2.85 0 0 0 .896-.541c.246-.195.47-.416.667-.658l.27-.33 2.381-3.29h3.459v4.858h5.135v4.78h-5.135v11.652a9.592 9.592 0 0 0 0 1.418ZM152.661 31.57a29.697 29.697 0 0 0 2.19-.328l.667-.126.619 4.036-1.46.329-2.5.619a29.677 29.677 0 0 1-3.317.658c-.863.11-1.733.164-2.603.165a10.359 10.359 0 0 1-4.214-.823 9.307 9.307 0 0 1-3.237-2.35 10.725 10.725 0 0 1-2.08-3.629 14.03 14.03 0 0 1-.73-4.654 16.983 16.983 0 0 1 .794-5.313 11.993 11.993 0 0 1 2.27-4.161 10.223 10.223 0 0 1 3.586-2.711 11.066 11.066 0 0 1 4.651-.94 10.608 10.608 0 0 1 3.713.634 7.4 7.4 0 0 1 2.913 1.959c.419.427.812.88 1.174 1.356.342.457.61.965.794 1.504.207.644.353 1.305.436 1.975.104.923.152 1.852.143 2.782v1.441l-12.26 1.317a7.502 7.502 0 0 0 2.166 4.74 7.2 7.2 0 0 0 4.714 1.568c.524.01 1.048-.005 1.571-.047Zm-4.063-11.158a14.17 14.17 0 0 0-.127-2.139 4.026 4.026 0 0 0-.373-1.3 1.375 1.375 0 0 0-.627-.643 2.166 2.166 0 0 0-.873-.165 1.986 1.986 0 0 0-1.085.279c-.327.194-.59.479-.756.818-.444.784-.666 2.163-.666 4.216v.165l4.507-.596v-.635ZM159.359 45.66V13.037l8.094-.987v1.943c.222-.133.453-.25.691-.352l.793-.345c.725-.31 1.47-.572 2.23-.784a7.095 7.095 0 0 1 1.778-.204 7.21 7.21 0 0 1 3.491.902 7.904 7.904 0 0 1 2.714 2.35 11.388 11.388 0 0 1 1.706 3.581c.419 1.46.624 2.973.611 4.49.002 1.79-.31 3.566-.92 5.25a12.9 12.9 0 0 1-2.436 4.2 11.32 11.32 0 0 1-3.722 2.79 11.113 11.113 0 0 1-4.762 1.011 7.7 7.7 0 0 1-1.079-.063 13.12 13.12 0 0 1-1.087-.18v9.02h-8.102ZM171.5 30.684c.91-1.202 1.368-3.109 1.373-5.72.005-2.613-.405-4.488-1.23-5.627a4.293 4.293 0 0 0-1.603-1.325 4.348 4.348 0 0 0-2.047-.422 2.845 2.845 0 0 0-.54.039v14.927h.167a4.7 4.7 0 0 0 2.174-.464 4.64 4.64 0 0 0 1.706-1.408ZM5.298 54.906c.011.292-.05.584-.176.848a1.823 1.823 0 0 1-.554.672 3.115 3.115 0 0 1-1.952.548 6.427 6.427 0 0 1-1.127-.094 3.207 3.207 0 0 1-.889-.282v-1.073c.313.137.637.25.968.337.37.096.752.146 1.135.149.395.025.788-.077 1.119-.29a.919.919 0 0 0 .365-.784.955.955 0 0 0-.167-.572 1.584 1.584 0 0 0-.531-.415 8.186 8.186 0 0 0-.953-.431 4.78 4.78 0 0 1-.96-.478 2.169 2.169 0 0 1-.658-.65 1.962 1.962 0 0 1-.239-1.004 1.651 1.651 0 0 1 .667-1.347 2.762 2.762 0 0 1 1.73-.51 5.074 5.074 0 0 1 2.087.439l-.357.854a6.47 6.47 0 0 0-.857-.29 3.866 3.866 0 0 0-.905-.11 1.41 1.41 0 0 0-.928.267.847.847 0 0 0-.318.69.97.97 0 0 0 .151.564c.13.176.301.32.5.415.292.151.59.287.897.407.364.144.717.314 1.055.51.275.16.504.387.667.658.165.297.245.633.23.972ZM7.274 49.295a.712.712 0 0 1 .436.141.586.586 0 0 1 .183.478.589.589 0 0 1-.183.478.711.711 0 0 1-.436.15.704.704 0 0 1-.445-.15.572.572 0 0 1-.182-.478.558.558 0 0 1 .182-.478.696.696 0 0 1 .445-.14Zm.54 2.085v5.485H6.717V51.38h1.095ZM15.86 51.278a1.92 1.92 0 0 1 1.405.486 2.109 2.109 0 0 1 .468 1.567v3.573h-1.08V53.44c0-.846-.348-1.269-1.046-1.269a1.204 1.204 0 0 0-1.056.447c-.247.402-.36.87-.325 1.34v2.954h-1.08V53.44c0-.846-.349-1.269-1.055-1.269a1.162 1.162 0 0 0-1.08.494c-.217.449-.318.944-.293 1.441v2.767H9.623v-5.486h.873l.15.737h.064c.16-.276.4-.497.69-.635a2.26 2.26 0 0 1 .937-.203c.341-.045.688.017.99.177.304.16.549.41.7.716h.064a1.58 1.58 0 0 1 .738-.674c.323-.15.675-.227 1.031-.227ZM22.297 51.278a2.037 2.037 0 0 1 1.587.713 3.975 3.975 0 0 1 0 4.255 2.027 2.027 0 0 1-1.587.729 1.948 1.948 0 0 1-.94-.18 1.922 1.922 0 0 1-.735-.604h-.071c0 .126 0 .267.047.44.048.172 0 .313 0 .438v2.241H19.52v-7.93h.92l.151.737h.056c.165-.24.382-.44.635-.588.308-.175.66-.261 1.016-.25Zm-.27.894a1.26 1.26 0 0 0-1.095.438 2.42 2.42 0 0 0-.318 1.348v.165a2.831 2.831 0 0 0 .31 1.457c.123.18.294.324.494.415.2.091.422.127.64.102a1.09 1.09 0 0 0 .584-.13c.179-.097.326-.242.424-.418.24-.44.355-.935.334-1.434a2.59 2.59 0 0 0-.334-1.419 1.139 1.139 0 0 0-1.04-.525ZM27.113 56.873h-1.12V49.13h1.096l.024 7.742ZM29.486 49.295a.712.712 0 0 1 .436.141.59.59 0 0 1 .183.478.588.588 0 0 1-.183.478.711.711 0 0 1-.436.15.728.728 0 0 1-.452-.15.593.593 0 0 1-.175-.478.58.58 0 0 1 .175-.478.72.72 0 0 1 .452-.14Zm.54 2.085v5.485H28.93V51.38h1.096ZM34.072 56.974a2.591 2.591 0 0 1-1.857-.666 2.88 2.88 0 0 1-.667-2.147 3.412 3.412 0 0 1 .342-1.645c.197-.39.514-.707.904-.91a2.982 2.982 0 0 1 1.365-.305c.294.001.587.035.873.102.232.05.458.123.675.22l-.334.877a4.629 4.629 0 0 0-.61-.196 2.492 2.492 0 0 0-.612-.086c-1.008 0-1.508.658-1.508 1.959a2.328 2.328 0 0 0 .365 1.426 1.3 1.3 0 0 0 1.095.486c.269.002.536-.032.794-.102.226-.062.444-.149.65-.259v.933c-.201.12-.42.207-.65.259a3.79 3.79 0 0 1-.825.054ZM37.548 49.295a.712.712 0 0 1 .436.141.564.564 0 0 1 .183.478.566.566 0 0 1-.183.478.711.711 0 0 1-.436.15.704.704 0 0 1-.445-.15.596.596 0 0 1-.182-.478.58.58 0 0 1 .182-.478.696.696 0 0 1 .445-.14Zm.54 2.085v5.485h-1.096V51.38h1.095ZM41.905 56.098c.148.011.296.011.444 0 .134-.018.264-.052.39-.102v.784a2.174 2.174 0 0 1-.477.14 3.063 3.063 0 0 1-.595.055c-.272 0-.54-.05-.794-.148a1.201 1.201 0 0 1-.603-.533 2.055 2.055 0 0 1-.222-1.05V52.21h-.794v-.493l.794-.408.38-1.16h.644v1.23h1.587v.831h-1.587v3.017a.861.861 0 0 0 .222.658.795.795 0 0 0 .61.212ZM43.11 51.38h1.175l1.158 3.135c.088.243.167.47.23.69.065.213.115.43.151.65.04-.18.088-.384.159-.627.071-.243.159-.478.246-.72l1.095-3.135H48.5l-2.381 6.269c-.159.472-.431.9-.794 1.246-.36.313-.83.476-1.309.454-.145.01-.291.01-.437 0l-.325-.055v-.9h.611a1.067 1.067 0 0 0 .794-.267c.205-.197.36-.438.452-.705l.23-.596-2.23-5.438ZM52.84 49.295a.712.712 0 0 1 .436.141.588.588 0 0 1 .183.478.59.59 0 0 1-.183.478.711.711 0 0 1-.436.15.728.728 0 0 1-.452-.15.593.593 0 0 1-.175-.478.58.58 0 0 1 .175-.478.72.72 0 0 1 .452-.14Zm.54 2.085v5.485h-1.096V51.38h1.096ZM58.887 55.33a1.388 1.388 0 0 1-.603 1.222 2.828 2.828 0 0 1-1.659.423 5.287 5.287 0 0 1-1.008-.086 3.202 3.202 0 0 1-.793-.251v-.948c.273.129.557.233.849.313.309.092.63.14.952.141.31.022.618-.046.889-.196a.623.623 0 0 0 .278-.517.566.566 0 0 0-.104-.337 1.315 1.315 0 0 0-.388-.305 6.985 6.985 0 0 0-.794-.36 6.554 6.554 0 0 1-.905-.424 1.58 1.58 0 0 1-.563-.501 1.257 1.257 0 0 1-.198-.784 1.251 1.251 0 0 1 .587-1.097 2.79 2.79 0 0 1 1.516-.345c.32 0 .639.035.952.102.3.068.592.165.873.29l-.357.784a6.446 6.446 0 0 0-.746-.259 2.916 2.916 0 0 0-.794-.11 1.468 1.468 0 0 0-.746.157.498.498 0 0 0-.268.358.488.488 0 0 0 .133.426c.117.122.258.22.413.29.198.094.468.211.794.344.305.106.6.24.88.4.227.115.421.285.564.494.157.229.243.498.246.775ZM65.077 56.098c.148.011.296.011.444 0 .134-.018.264-.052.389-.102v.784a2.48 2.48 0 0 1-.476.14 3.062 3.062 0 0 1-.595.055c-.272 0-.541-.05-.794-.148a1.248 1.248 0 0 1-.61-.533 2.14 2.14 0 0 1-.215-1.05V52.21h-.794v-.493l.794-.408.38-1.16h.667v1.23h1.587v.831h-1.587v3.017a.892.892 0 0 0 .223.658.796.796 0 0 0 .587.212ZM68.22 51.2v.517c0 .172 0 .297-.049.407h.08c.167-.276.416-.495.714-.627.306-.139.64-.209.976-.203a2.137 2.137 0 0 1 1.5.478c.195.209.343.457.433.727.09.27.122.557.09.84v3.573h-1.102v-3.463c0-.855-.381-1.278-1.143-1.278a1.277 1.277 0 0 0-1.174.502c-.242.441-.355.94-.326 1.441v2.759h-1.095V49.13h1.095V51.2ZM75.916 51.278a2.263 2.263 0 0 1 1.722.674c.445.5.672 1.153.635 1.818v.588h-3.737c-.017.47.141.93.444 1.293a1.59 1.59 0 0 0 1.206.446c.32.004.64-.028.952-.094a5.34 5.34 0 0 0 .865-.29v.893a4.005 4.005 0 0 1-.849.275c-.331.068-.669.099-1.007.094a3.038 3.038 0 0 1-1.429-.314 2.256 2.256 0 0 1-.96-.94 3.18 3.18 0 0 1-.35-1.567 3.512 3.512 0 0 1 .318-1.567c.189-.404.492-.744.873-.98.4-.228.856-.342 1.317-.329Zm0 .839a1.252 1.252 0 0 0-.944.376c-.256.301-.402.68-.412 1.073h2.618a1.74 1.74 0 0 0-.317-1.05 1.102 1.102 0 0 0-.945-.4ZM86.209 55.33a1.395 1.395 0 0 1-.596 1.222 2.829 2.829 0 0 1-1.658.423 5.23 5.23 0 0 1-1.008-.087 3.407 3.407 0 0 1-.794-.25v-.948c.274.128.558.233.85.313.311.091.635.139.96.141.31.022.618-.046.889-.196a.613.613 0 0 0 .27-.517.62.62 0 0 0-.096-.337 1.316 1.316 0 0 0-.389-.306 6.657 6.657 0 0 0-.833-.36 7.028 7.028 0 0 1-.904-.423 1.643 1.643 0 0 1-.556-.502 1.257 1.257 0 0 1-.198-.783c-.01-.217.039-.433.14-.625.102-.193.253-.356.439-.472a2.821 2.821 0 0 1 1.587-.384c.32.001.64.035.952.102.3.07.592.166.873.29l-.365.783a5.854 5.854 0 0 0-.738-.258 2.915 2.915 0 0 0-.793-.11 1.516 1.516 0 0 0-.794.157.48.48 0 0 0-.254.423.497.497 0 0 0 .12.337c.12.122.262.22.42.29.198.094.468.211.793.344.305.109.6.243.881.4.225.115.416.285.556.494.17.246.256.54.246.838ZM89.804 51.278a2.264 2.264 0 0 1 1.722.674c.441.502.666 1.154.627 1.818v.588h-3.73c-.024.47.135.933.444 1.293a1.592 1.592 0 0 0 1.206.446c.32.004.64-.028.953-.094.294-.07.58-.168.857-.29v.893a3.9 3.9 0 0 1-.841.275 4.75 4.75 0 0 1-1.016.094 3.088 3.088 0 0 1-1.428-.314 2.296 2.296 0 0 1-.96-.94 3.18 3.18 0 0 1-.342-1.567 3.513 3.513 0 0 1 .317-1.567c.19-.404.492-.744.873-.98a2.5 2.5 0 0 1 1.318-.329Zm0 .839a1.237 1.237 0 0 0-.945.376c-.26.3-.407.679-.42 1.073h2.627a1.74 1.74 0 0 0-.31-1.05 1.1 1.1 0 0 0-.952-.4ZM95.827 56.974A2.583 2.583 0 0 1 94 56.31a2.882 2.882 0 0 1-.698-2.14 3.41 3.41 0 0 1 .341-1.645c.203-.398.532-.72.937-.917.42-.21.886-.314 1.357-.306.294 0 .587.035.873.102.232.048.458.122.674.22l-.325.877a4.746 4.746 0 0 0-.62-.196 2.494 2.494 0 0 0-.61-.086c-1 0-1.508.658-1.508 1.96a2.328 2.328 0 0 0 .373 1.425 1.268 1.268 0 0 0 1.095.486c.268.003.535-.031.794-.102.228-.062.449-.149.658-.258v.932a2.35 2.35 0 0 1-.65.259c-.286.05-.576.069-.865.054ZM101.525 51.278h.309l.294.04-.111 1.01a2.165 2.165 0 0 0-.556-.07 1.6 1.6 0 0 0-1.365.783 1.8 1.8 0 0 0-.222.917v2.892h-1.095v-5.485h.865l.15 1.026c.183-.3.42-.566.699-.783a1.6 1.6 0 0 1 1.032-.33ZM105.247 51.278a2.26 2.26 0 0 1 1.722.674c.441.502.666 1.154.626 1.818v.588h-3.729a1.83 1.83 0 0 0 .444 1.293 1.596 1.596 0 0 0 1.206.446c.32.004.64-.028.953-.094.296-.072.585-.169.865-.29v.893a4.105 4.105 0 0 1-.85.275 4.72 4.72 0 0 1-1.007.094 3.097 3.097 0 0 1-1.437-.314 2.282 2.282 0 0 1-.952-.94 3.174 3.174 0 0 1-.349-1.567 3.515 3.515 0 0 1 .317-1.567c.189-.404.492-.744.873-.98.4-.229.856-.343 1.318-.329Zm0 .839a1.254 1.254 0 0 0-.945.376c-.256.302-.404.68-.42 1.073h2.626a1.791 1.791 0 0 0-.317-1.05 1.106 1.106 0 0 0-.944-.4ZM111.063 56.098a2.9 2.9 0 0 0 .445 0 1.54 1.54 0 0 0 .388-.102v.784a2.157 2.157 0 0 1-.476.14 3.059 3.059 0 0 1-.595.055 2.211 2.211 0 0 1-.833-.148 1.232 1.232 0 0 1-.603-.533 2.047 2.047 0 0 1-.222-1.05V52.21h-.794v-.493l.794-.408.381-1.16h.674v1.23h1.587v.831h-1.587v3.017a.858.858 0 0 0 .222.658.795.795 0 0 0 .619.212ZM120.799 54.124a2.94 2.94 0 0 1-.706 2.107 2.534 2.534 0 0 1-1.92.744c-.47.01-.934-.106-1.341-.336a2.314 2.314 0 0 1-.913-.972 3.3 3.3 0 0 1-.341-1.567 2.93 2.93 0 0 1 .706-2.1 2.525 2.525 0 0 1 1.92-.784c.47-.006.933.11 1.342.337.395.226.715.56.92.964a3.24 3.24 0 0 1 .333 1.607Zm-4.094 0c-.03.507.094 1.012.357 1.45.126.174.297.314.494.404.198.091.416.13.633.112a1.288 1.288 0 0 0 1.134-.517c.263-.437.387-.942.357-1.45a2.46 2.46 0 0 0-.365-1.441 1.298 1.298 0 0 0-1.134-.502 1.285 1.285 0 0 0-1.127.502 2.535 2.535 0 0 0-.349 1.442ZM124.997 52.21h-1.396v4.702h-1.087v-4.701h-.945v-.51l.945-.337v-.344a1.928 1.928 0 0 1 .484-1.497c.384-.314.875-.47 1.373-.439.22-.003.441.015.658.055.199.047.365.086.508.133l-.286.83a3.844 3.844 0 0 0-.38-.101 2.118 2.118 0 0 0-.453-.047c-.539 0-.793.36-.793 1.073v.353h1.372v.83ZM129.949 51.2V52.124c.167-.276.417-.495.714-.627.306-.139.64-.209.976-.203a2.136 2.136 0 0 1 1.5.478 1.991 1.991 0 0 1 .524 1.567v3.573h-1.087v-3.463c0-.855-.381-1.278-1.143-1.278a1.285 1.285 0 0 0-1.175.502 2.68 2.68 0 0 0-.309 1.441v2.759h-1.087V49.13h1.087V51.2ZM137.615 51.279a2.344 2.344 0 0 1 1.587.454 1.796 1.796 0 0 1 .524 1.427v3.714h-.793l-.215-.784a2.374 2.374 0 0 1-.793.65c-.342.159-.718.231-1.095.212a1.913 1.913 0 0 1-1.246-.4 1.554 1.554 0 0 1-.5-1.261 1.431 1.431 0 0 1 .643-1.27 3.623 3.623 0 0 1 1.968-.477h.952v-.306a.934.934 0 0 0-.25-.817.96.96 0 0 0-.813-.288c-.27.004-.537.046-.794.125a4.893 4.893 0 0 0-.754.298l-.349-.783c.287-.149.591-.264.905-.345a3.956 3.956 0 0 1 1.023-.149Zm.262 2.978a2.555 2.555 0 0 0-1.317.313.885.885 0 0 0-.365.784.784.784 0 0 0 .254.62c.198.134.434.203.674.195.387.012.766-.116 1.064-.36a1.299 1.299 0 0 0 .428-1.066v-.486h-.738ZM144.233 51.278a2.05 2.05 0 0 1 1.587.713c.45.618.666 1.372.611 2.132a3.188 3.188 0 0 1-.619 2.123 2.003 2.003 0 0 1-1.587.729 2.067 2.067 0 0 1-1.031-.227 2.06 2.06 0 0 1-.635-.549h-.072c0 .125 0 .267.048.439s0 .313 0 .439v2.24h-1.095V51.38h.889l.15.736h.056c.165-.24.382-.44.635-.587.322-.183.692-.27 1.063-.25Zm-.262.893a1.258 1.258 0 0 0-1.095.44 2.327 2.327 0 0 0-.325 1.34v.164a2.836 2.836 0 0 0 .309 1.457 1.199 1.199 0 0 0 1.135.517 1.098 1.098 0 0 0 1.032-.564c.24-.44.355-.935.333-1.434a2.588 2.588 0 0 0-.333-1.418 1.139 1.139 0 0 0-1.024-.502h-.032ZM150.756 51.28a2.052 2.052 0 0 1 1.587.712c.45.619.666 1.373.611 2.132a3.192 3.192 0 0 1-.618 2.123 2.014 2.014 0 0 1-1.588.729 2.067 2.067 0 0 1-1.031-.227 1.978 1.978 0 0 1-.635-.549h-.087c0 .125.039.267.055.439s0 .313 0 .439v2.24h-1.095v-7.937h.889l.151.737h.055a1.911 1.911 0 0 1 1.675-.839h.031Zm-.254.892a1.259 1.259 0 0 0-1.095.44 2.327 2.327 0 0 0-.325 1.34v.164a2.836 2.836 0 0 0 .309 1.457 1.199 1.199 0 0 0 1.135.517 1.079 1.079 0 0 0 1.008-.549c.24-.439.355-.934.333-1.433a2.588 2.588 0 0 0-.333-1.418 1.132 1.132 0 0 0-1.032-.518ZM155.042 49.295a.716.716 0 0 1 .437.141.59.59 0 0 1 .182.478.588.588 0 0 1-.182.478.715.715 0 0 1-.437.15.727.727 0 0 1-.452-.15.593.593 0 0 1-.175-.478.584.584 0 0 1 .175-.478.719.719 0 0 1 .452-.14Zm.532 2.085v5.485h-1.087V51.38h1.087ZM160.208 51.278a2.08 2.08 0 0 1 1.484.486 1.991 1.991 0 0 1 .516 1.567v3.573h-1.08V53.45c0-.854-.381-1.277-1.142-1.277a1.3 1.3 0 0 0-1.183.494 2.692 2.692 0 0 0-.317 1.441v2.766h-1.095v-5.485h.865l.158.736h.103c.173-.283.431-.505.738-.634.3-.133.624-.205.953-.212ZM166.184 51.278a2.26 2.26 0 0 1 1.722.674c.441.502.666 1.154.626 1.818v.588h-3.729a1.83 1.83 0 0 0 .444 1.293 1.596 1.596 0 0 0 1.206.446c.32.004.64-.028.953-.094.296-.072.585-.169.865-.29v.893a4.105 4.105 0 0 1-.85.275 4.72 4.72 0 0 1-1.007.094 3.097 3.097 0 0 1-1.437-.314 2.282 2.282 0 0 1-.952-.94 3.174 3.174 0 0 1-.349-1.567 3.515 3.515 0 0 1 .317-1.567c.189-.404.492-.744.873-.98.4-.229.856-.343 1.318-.329Zm0 .839a1.254 1.254 0 0 0-.945.376c-.256.302-.404.68-.42 1.073h2.626a1.791 1.791 0 0 0-.317-1.05 1.106 1.106 0 0 0-.944-.4ZM173.69 55.33c.013.236-.035.472-.139.686a1.417 1.417 0 0 1-.456.536 2.826 2.826 0 0 1-1.658.423 5.23 5.23 0 0 1-1.008-.087 3.277 3.277 0 0 1-.794-.25v-.948c.273.128.558.233.849.313.309.092.63.14.953.141a1.6 1.6 0 0 0 .896-.196.606.606 0 0 0 .27-.517.572.572 0 0 0-.103-.337 1.264 1.264 0 0 0-.381-.306 6.642 6.642 0 0 0-.793-.36 7.002 7.002 0 0 1-.905-.423 1.676 1.676 0 0 1-.564-.502 1.317 1.317 0 0 1-.19-.783 1.225 1.225 0 0 1 .141-.625 1.25 1.25 0 0 1 .438-.472 2.822 2.822 0 0 1 1.587-.384c.321.001.64.035.953.102.299.07.591.167.873.29l-.365.783a5.673 5.673 0 0 0-.746-.258 2.85 2.85 0 0 0-.794-.11 1.5 1.5 0 0 0-.754.157.47.47 0 0 0-.189.175.468.468 0 0 0-.065.248.5.5 0 0 0 .119.337c.121.122.263.22.421.29.19.094.46.211.793.344.305.109.6.243.881.4.225.115.416.285.556.494.145.254.206.547.174.838ZM178.785 55.33c.013.236-.035.472-.139.686a1.417 1.417 0 0 1-.456.536 2.831 2.831 0 0 1-1.659.423 5.254 5.254 0 0 1-1.008-.086 3.398 3.398 0 0 1-.793-.251v-.948c.273.129.557.233.849.313.312.091.635.139.96.141.309.022.618-.046.889-.196a.614.614 0 0 0 .174-.854 1.302 1.302 0 0 0-.388-.305 6.711 6.711 0 0 0-.834-.36 7.066 7.066 0 0 1-.904-.424 1.647 1.647 0 0 1-.556-.502 1.255 1.255 0 0 1-.198-.783 1.242 1.242 0 0 1 .579-1.097 2.821 2.821 0 0 1 1.547-.384c.321.001.64.035.953.102.299.07.592.166.873.29l-.365.783a5.9 5.9 0 0 0-.738-.258 2.92 2.92 0 0 0-.794-.11 1.516 1.516 0 0 0-.754.157.483.483 0 0 0-.254.423.5.5 0 0 0 .119.337c.121.122.263.22.421.29.198.094.468.211.793.345.305.108.6.242.881.4.225.114.416.284.556.493.17.246.256.54.246.838ZM206.606 8.205s-2.261 2.414-.381 3.714c1.881 1.301 13.308 7.382 13.308 7.382.475.35.846.818 1.078 1.356.231.538.314 1.128.24 1.708-.143 2.186.047 10.915.047 10.915a3.12 3.12 0 0 1-.576 1.321c-.294.39-.675.708-1.114.928-1.46.65-12.76 7.397-12.76 7.397a2.15 2.15 0 0 0-.241 1.471c.097.503.37.956.772 1.28 1.46 1.065 12.554 6.919 12.554 6.919s1.508 1.207 1.318 2.64a48.602 48.602 0 0 0 .047 5.439l-14.625-8.361s-2.523-1.207-2.523-3.62c0-2.414.095-10.728.095-10.728.128-.438.355-.84.665-1.179a3.036 3.036 0 0 1 1.12-.772c1.587-.784 13.776-7.836 13.776-7.836l-.23-2.696-13.768-7.57a2.627 2.627 0 0 1-.851-1.003 2.592 2.592 0 0 1-.252-1.284 45.125 45.125 0 0 1 .238-4.764s-.286-1.529 2.063-2.657Z"/>
  <path fill="#83CBAA" d="m235.492 11.534-13.57 7.492c-1.047.854-2.031.697-3.103 0l-13.236-7.186c-1.072-.893-1.167-2.241 0-3.064l13.046-7.49c1.095-.698 1.777-.926 3.103-.001l13.76 7.225c1.182.783.833 2.178 0 3.024Z"/>
  <path fill="#B12F53" d="m219.542 28.312-13.538 7.491c-1.048.854-2.04.697-3.103 0l-13.245-7.186a1.989 1.989 0 0 1 0-3.064l13.047-7.49c1.095-.698 1.777-.925 3.102 0l13.737 7.185c1.206.823.873 2.218 0 3.064Z"/>
  <path fill="#F47E42" d="m236.222 45.152-13.546 7.49c-1.047.855-2.031.69-3.102 0l-13.237-7.193a1.996 1.996 0 0 1-.724-1.532 1.98 1.98 0 0 1 .724-1.531l13.046-7.484c1.095-.697 1.778-.924 3.103 0l13.736 7.186c1.207.823.857 2.217 0 3.064Z"/>
</svg>
