<svg xmlns="http://www.w3.org/2000/svg" width="49" height="60" fill="none"><path fill="#2B3990" d="M18.408 7.53s-2.262 2.414-.381 3.715c1.88 1.3 13.308 7.381 13.308 7.381.474.35.846.818 1.077 1.356a3.27 3.27 0 0 1 .24 1.708c-.143 2.186.047 10.915.047 10.915-.085.479-.283.931-.576 1.322-.293.39-.675.708-1.114.927-1.46.65-12.76 7.397-12.76 7.397a2.155 2.155 0 0 0 .532 2.75c1.46 1.067 12.554 6.92 12.554 6.92s1.507 1.207 1.317 2.64A48.578 48.578 0 0 0 32.699 60l-14.625-8.361s-2.523-1.207-2.523-3.62c0-2.414.095-10.728.095-10.728.128-.438.355-.84.665-1.179a3.04 3.04 0 0 1 1.12-.772c1.588-.784 13.777-7.836 13.777-7.836l-.23-2.695-13.769-7.57a2.626 2.626 0 0 1-.85-1.003 2.59 2.59 0 0 1-.253-1.285 45.152 45.152 0 0 1 .238-4.764s-.285-1.528 2.064-2.657Z"/><path fill="#83CBAA" d="m47.293 10.86-13.57 7.492c-1.048.854-2.032.697-3.103 0l-13.236-7.186c-1.072-.893-1.167-2.24 0-3.064L30.43.612c1.095-.698 1.777-.925 3.102 0l13.76 7.224c1.183.784.834 2.178 0 3.025Z"/><path fill="#B12F53" d="M31.343 27.637 17.805 35.13c-1.048.854-2.04.697-3.103 0L1.457 27.943a2.009 2.009 0 0 1-.72-1.532 1.984 1.984 0 0 1 .72-1.532l13.046-7.49c1.095-.698 1.778-.926 3.103 0l13.736 7.185c1.207.822.873 2.217 0 3.063Z"/><path fill="#F47E42" d="m48.023 44.477-13.546 7.491c-1.048.854-2.032.69-3.103 0l-13.237-7.193a2 2 0 0 1-.724-1.532 1.976 1.976 0 0 1 .724-1.532l13.046-7.484c1.096-.697 1.778-.924 3.103 0l13.737 7.186c1.206.823.857 2.218 0 3.064Z"/></svg>